<?xml version="1.0" encoding="UTF-8"?>
<svg id="Capa_2" data-name="Capa 2" xmlns="http://www.w3.org/2000/svg" viewBox="0 0 260.62 126.73">
  <defs>
    <style>
      .cls-1 {
        fill: #de0715;
      }
    </style>
  </defs>
  <g id="Capa_1-2" data-name="Capa 1">
    <g>
      <path class="cls-1" d="m227.03,7.66c-2-5.11-4.71-8.59-12.67-7.44-16.49,2.46-31.96,5.29-56.14,10.12-12.05,2.3-24.67,4.95-38.98,8.05-14.4,3.09-29.24,6.36-45.83,10.56-6.9,1.86-10.7,8.12-8.38,15.22,5.46,15.5,10.99,32.15,15.86,49.28,2.35,7.54,9.34,11.38,16.35,9.2,32.77-11.1,59.04-20.17,82.15-28.31,4.7-1.64,9.08-3.22,13.37-4.7v-28.57h-4.89v-9.32h4.89v-1.58c0-4.92,1.33-10.32,4.56-13.64,2.92-3.04,6.81-4.1,10.2-4.1,2.46,0,4.41.43,5.97.82l-.41,9.76c-.99-.35-2.2-.59-3.69-.59-3.78,0-5.33,3.25-5.33,7.25v2.09h7.34v9.32h-7.28v24.51c2.12-.74,4.2-1.48,6.3-2.23,2.21-.78,4.23-1.48,6.09-2.15v-28.75c4.99-.64,4.94-.42,10.8-.26v25.17c1.86-.66,3.77-1.34,5.79-2.09,6.36-2.41,6.99-7.17,5.6-12.56-3.55-12.06-7.31-23.56-11.68-35.07Zm-99.84,65.74c-4.82,0-9.08-1.24-11.86-2.91l2.02-8.99c2.11,1.4,6.45,2.99,9.84,2.99s4.85-1.26,4.85-3.33-1.16-3.15-5.33-4.75c-7.62-2.73-10.57-7.4-10.49-12.16,0-7.65,5.86-13.42,14.91-13.42,4.31,0,8.04,1.17,10.28,2.4l-1.93,8.69c-1.65-.92-4.86-2.26-7.95-2.26-2.77,0-4.33,1.24-4.33,3.24s1.42,2.99,5.89,4.76c6.99,2.57,9.82,6.57,9.9,12.48,0,7.67-5.3,13.25-15.8,13.25Zm46.58-.91l-.48-5.75h-.27c-1.39,2.49-4.84,6.66-11.45,6.66-7.5,0-12.88-5.17-12.88-17.75v-23.89h11.39v21.91c0,5.91,1.71,9.49,5.75,9.49,3.17,0,5.02-2.43,5.73-4.41.28-.75.41-1.65.41-2.76v-24.23h11.42v27.66c0,5.31.16,9.64.29,13.07h-9.92Zm48.5-45.39c-3.44,0-6.31-2.85-6.31-6.33s2.87-6.26,6.31-6.26,6.33,2.78,6.33,6.26-2.84,6.33-6.33,6.33Z"/>
      <g>
        <g>
          <path class="cls-1" d="m7.09,115.49c-.29-1.43-.96-2.94-2.63-2.94s-3.14,1.64-3.14,5.35,1.45,5.34,3.14,5.34c1.6,0,2.34-1.49,2.63-2.93l1.2.31c-.34,2.02-1.65,3.66-3.83,3.66-2.56,0-4.46-2.36-4.46-6.38s1.9-6.37,4.46-6.37c2.17,0,3.44,1.6,3.78,3.67l-1.15.29Z"/>
          <path class="cls-1" d="m9.81,119.65c0-3.23,1.55-4.57,3.48-4.57s3.48,1.34,3.48,4.57-1.56,4.63-3.48,4.63-3.48-1.32-3.48-4.63Zm5.74,0c0-1.43-.36-3.52-2.25-3.52s-2.25,2.09-2.25,3.52.36,3.58,2.25,3.58,2.25-2.08,2.25-3.58Z"/>
          <path class="cls-1" d="m19.67,124.02h-1.22v-8.69h1.22v.78c.76-.63,1.42-1.03,2.41-1.03.93,0,1.64.4,2.09,1.17.81-.63,1.61-1.17,2.68-1.17,1.2,0,2.21.69,2.21,2.92v6.02h-1.22v-5.68c0-.93.14-2.28-1.17-2.28-.87,0-1.78.61-2.3,1.14v6.82h-1.26v-5.68c0-.93.17-2.28-1.1-2.28-1.07.07-1.71.61-2.34,1.14v6.82Z"/>
          <path class="cls-1" d="m32.2,126.73h-1.2v-11.39h1.2v.9c.59-.62,1.34-1.15,2.2-1.15,1.48,0,3.19,1.34,3.19,4.77s-1.97,4.42-3.16,4.42c-.97,0-1.64-.54-2.23-1.24v3.69Zm0-5.15c.33.74,1.18,1.62,2.03,1.62s2.09-.84,2.09-3.37c0-1.34-.34-3.69-2.09-3.69-.93,0-1.62.65-2.03,1.42v4.02Z"/>
          <path class="cls-1" d="m44.13,124.02l-.12-1.11c-.7.71-1.53,1.37-2.52,1.37-1.34,0-2.43-1.14-2.43-2.5,0-2.49,2.66-3.02,4.55-3.52l.41-.11v-.5c0-1-.69-1.51-1.65-1.51s-1.65.59-2.16,1.33l-.84-.62c.73-1.03,1.64-1.75,3-1.75,1.15,0,2.85.73,2.85,2.7v4.31c.02.64,0,1.3.24,1.93h-1.33Zm-.64-4.73c-1.12.33-3.28.82-3.28,2.38,0,.69.58,1.45,1.3,1.45.97,0,1.89-.68,2.5-1.4v-2.61l-.53.18Z"/>
          <path class="cls-1" d="m48.38,124.02h-1.22v-8.69h1.22v.9c.7-.58,1.39-1.15,2.38-1.15,1.23,0,2.2.69,2.2,2.92v6.02h-1.19v-5.68c0-.93.15-2.28-1.16-2.28-.73,0-1.74.74-2.22,1.35v6.6Zm4.31-11.92c-.31.55-.87,1.26-1.58,1.26-.35,0-.74-.16-1.1-.3-.37-.16-.69-.33-.95-.33-.52,0-.7.38-.95.71l-.68-.45c.4-.61.89-1.19,1.69-1.19.32,0,.65.11.99.28.33.16.61.29.89.29.49,0,.71-.31.92-.65l.76.38Z"/>
          <path class="cls-1" d="m55.95,111.76h1.44l-1.67,2.27h-.87l1.1-2.27Zm.18,12.26h-1.21v-8.69h1.21v8.69Z"/>
          <path class="cls-1" d="m62.9,124.02l-.11-1.11c-.71.71-1.49,1.37-2.52,1.37-1.38,0-2.41-1.14-2.41-2.5,0-2.49,2.62-3.02,4.5-3.52l.43-.11v-.5c0-1-.71-1.51-1.66-1.51s-1.61.59-2.13,1.33l-.87-.62c.72-1.03,1.67-1.75,3-1.75,1.15,0,2.89.73,2.89,2.7v4.31c0,.64-.03,1.3.24,1.93h-1.36Zm-.62-4.73c-1.14.33-3.27.82-3.27,2.38,0,.69.56,1.45,1.3,1.45.99,0,1.9-.68,2.48-1.4v-2.61l-.52.18Z"/>
          <path class="cls-1" d="m75.65,111.76h1.23v12.26h-1.23v-.98c-.58.7-1.27,1.24-2.22,1.24-1.22,0-3.2-1.1-3.2-4.42s1.75-4.77,3.24-4.77c.81,0,1.6.54,2.18,1.15v-4.48Zm0,5.8c-.4-.77-1.09-1.42-2.05-1.42-1.69,0-2.05,2.35-2.05,3.69,0,2.53,1.18,3.37,2.05,3.37s1.7-.88,2.05-1.62v-4.02Z"/>
          <path class="cls-1" d="m79.87,119.88c0,2.48,1.05,3.36,2.31,3.36.91,0,1.67-.74,2.12-1.52l.9.6c-.46,1.11-1.65,1.96-3.14,1.96-1.95,0-3.48-1.32-3.48-4.63s1.53-4.57,3.48-4.57c2.51,0,3.21,2.67,3.04,4.8h-5.23Zm3.95-1.05c0-1.11-.59-2.7-1.85-2.7-1.4,0-2.05,1.49-2.09,2.7h3.94Z"/>
          <path class="cls-1" d="m97.6,112.89h-4.87v4.05h3.69v1.06h-3.69v6.02h-1.29v-12.26h6.16v1.13Z"/>
          <path class="cls-1" d="m100.28,113.12h-1.22v-1.37h1.22v1.37Zm0,10.9h-1.22v-8.69h1.22v8.69Z"/>
          <path class="cls-1" d="m103.42,124.02h-1.2v-8.69h1.2v.9c.76-.58,1.41-1.15,2.43-1.15,1.21,0,2.22.69,2.22,2.92v6.02h-1.24v-5.68c0-.93.16-2.28-1.14-2.28-.78,0-1.74.74-2.26,1.35v6.6Z"/>
          <path class="cls-1" d="m114.8,124.02l-.12-1.11c-.7.71-1.5,1.37-2.51,1.37-1.33,0-2.42-1.14-2.42-2.5,0-2.49,2.6-3.02,4.51-3.52l.41-.11v-.5c0-1-.67-1.51-1.64-1.51s-1.64.59-2.13,1.33l-.88-.62c.74-1.03,1.67-1.75,3.01-1.75,1.15,0,2.86.73,2.86,2.7v4.31c.03.64,0,1.3.25,1.93h-1.35Zm-.64-4.73c-1.13.33-3.25.82-3.25,2.38,0,.69.57,1.45,1.3,1.45.96,0,1.87-.68,2.46-1.4v-2.61l-.51.18Z"/>
          <path class="cls-1" d="m119.06,124.02h-1.23v-8.69h1.23v.9c.69-.58,1.36-1.15,2.4-1.15,1.21,0,2.19.69,2.19,2.92v6.02h-1.24v-5.68c0-.93.17-2.28-1.13-2.28-.76,0-1.73.74-2.22,1.35v6.6Z"/>
          <path class="cls-1" d="m130.56,117.76c-.31-.79-.77-1.69-1.75-1.62-1.87,0-2.24,2.09-2.24,3.52s.37,3.58,2.24,3.58c1.04-.05,1.64-.92,2.04-1.77l1,.45c-.5,1.32-1.65,2.36-3.03,2.36-1.93,0-3.46-1.32-3.46-4.63s1.53-4.57,3.46-4.57c1.45,0,2.33.88,2.78,2.2l-1.03.47Z"/>
          <path class="cls-1" d="m134.77,113.12h-1.24v-1.37h1.24v1.37Zm0,10.9h-1.24v-8.69h1.24v8.69Z"/>
          <path class="cls-1" d="m141.56,124.02l-.14-1.11c-.71.71-1.5,1.37-2.55,1.37-1.32,0-2.39-1.14-2.39-2.5,0-2.49,2.6-3.02,4.54-3.52l.4-.11v-.5c0-1-.68-1.51-1.69-1.51s-1.61.59-2.11,1.33l-.88-.62c.72-1.03,1.7-1.75,2.99-1.75,1.19,0,2.89.73,2.89,2.7v4.31c.03.64,0,1.3.28,1.93h-1.34Zm-.63-4.73c-1.19.33-3.3.82-3.3,2.38,0,.69.56,1.45,1.28,1.45,1.01,0,1.89-.68,2.51-1.4v-2.61l-.5.18Z"/>
          <path class="cls-1" d="m145.8,124.02h-1.24v-8.69h1.24v.78c.73-.63,1.39-1.03,2.38-1.03s1.66.4,2.13,1.17c.79-.63,1.55-1.17,2.66-1.17,1.22,0,2.2.69,2.2,2.92v6.02h-1.23v-5.68c0-.93.15-2.28-1.13-2.28-.91,0-1.81.61-2.31,1.14v6.82h-1.24v-5.68c0-.93.18-2.28-1.16-2.28-1.04.07-1.67.61-2.29,1.14v6.82Z"/>
          <path class="cls-1" d="m158.32,113.12h-1.21v-1.37h1.21v1.37Zm0,10.9h-1.21v-8.69h1.21v8.69Z"/>
          <path class="cls-1" d="m161.32,119.88c0,2.48,1.07,3.36,2.31,3.36.9,0,1.67-.74,2.13-1.52l.87.6c-.49,1.11-1.63,1.96-3.13,1.96-1.95,0-3.46-1.32-3.46-4.63s1.51-4.57,3.46-4.57c2.49,0,3.24,2.67,3.05,4.8h-5.22Zm3.92-1.05c.05-1.11-.55-2.7-1.85-2.7-1.38,0-2.04,1.49-2.06,2.7h3.91Z"/>
          <path class="cls-1" d="m169.53,124.02h-1.24v-8.69h1.24v.9c.7-.58,1.42-1.15,2.4-1.15,1.2,0,2.2.69,2.2,2.92v6.02h-1.22v-5.68c0-.93.15-2.28-1.15-2.28-.76,0-1.75.74-2.24,1.35v6.6Z"/>
          <path class="cls-1" d="m177.76,115.33h1.97v1.03h-1.97v5.47c0,.85-.01,1.4,1,1.4.33,0,.66-.04.97-.12v.9c-.41.14-.8.26-1.21.26-2.1,0-1.97-1.43-1.97-3.01v-4.9h-1.34v-1.03h1.34v-2.83h1.2v2.83Z"/>
          <path class="cls-1" d="m180.56,119.65c0-3.23,1.56-4.57,3.5-4.57s3.5,1.34,3.5,4.57-1.58,4.63-3.5,4.63-3.5-1.32-3.5-4.63Zm5.74,0c0-1.43-.35-3.52-2.24-3.52s-2.23,2.09-2.23,3.52.33,3.58,2.23,3.58,2.24-2.08,2.24-3.58Z"/>
          <path class="cls-1" d="m200.58,115.49c-.32-1.43-.98-2.94-2.63-2.94s-3.16,1.64-3.16,5.35,1.44,5.34,3.16,5.34c1.62,0,2.34-1.49,2.63-2.93l1.21.31c-.33,2.02-1.67,3.66-3.84,3.66-2.56,0-4.46-2.36-4.46-6.38s1.9-6.37,4.46-6.37c2.17,0,3.42,1.6,3.77,3.67l-1.14.29Z"/>
          <path class="cls-1" d="m203.31,119.65c0-3.23,1.54-4.57,3.47-4.57s3.49,1.34,3.49,4.57-1.54,4.63-3.49,4.63-3.47-1.32-3.47-4.63Zm5.76,0c0-1.43-.41-3.52-2.29-3.52s-2.24,2.09-2.24,3.52.37,3.58,2.24,3.58,2.29-2.08,2.29-3.58Z"/>
          <path class="cls-1" d="m213.17,124.02h-1.23v-8.69h1.23v.78c.75-.63,1.4-1.03,2.39-1.03.93,0,1.64.4,2.13,1.17.78-.63,1.54-1.17,2.63-1.17,1.21,0,2.22.69,2.22,2.92v6.02h-1.24v-5.68c0-.93.19-2.28-1.15-2.28-.89,0-1.78.61-2.3,1.14v6.82h-1.24v-5.68c0-.93.15-2.28-1.15-2.28-1.05.07-1.68.61-2.3,1.14v6.82Z"/>
          <path class="cls-1" d="m225.52,119.88c0,2.48,1.05,3.36,2.31,3.36.92,0,1.68-.74,2.13-1.52l.88.6c-.46,1.11-1.66,1.96-3.13,1.96-1.93,0-3.49-1.32-3.49-4.63s1.55-4.57,3.49-4.57c2.48,0,3.22,2.67,3.04,4.8h-5.23Zm3.95-1.05c.04-1.11-.58-2.7-1.85-2.7-1.4,0-2.04,1.49-2.05,2.7h3.9Z"/>
          <path class="cls-1" d="m233.76,117.2h.03c.51-1.07,1.11-2.01,2.41-2.01h.48v1.12c-1.63-.2-2.45,1.53-2.92,2.77v4.93h-1.23v-8.69h1.23v1.87Z"/>
          <path class="cls-1" d="m242.65,117.76c-.27-.79-.79-1.69-1.73-1.62-1.89,0-2.27,2.09-2.27,3.52s.38,3.58,2.27,3.58c1.03-.05,1.66-.92,2.01-1.77l1.02.45c-.54,1.32-1.63,2.36-3.03,2.36-1.96,0-3.49-1.32-3.49-4.63s1.53-4.57,3.49-4.57c1.39,0,2.31.88,2.77,2.2l-1.04.47Z"/>
          <path class="cls-1" d="m246.87,113.12h-1.23v-1.37h1.23v1.37Zm0,10.9h-1.23v-8.69h1.23v8.69Z"/>
          <path class="cls-1" d="m253.62,124.02l-.13-1.11c-.69.71-1.47,1.37-2.51,1.37-1.34,0-2.42-1.14-2.42-2.5,0-2.49,2.64-3.02,4.56-3.52l.37-.11v-.5c0-1-.68-1.51-1.64-1.51s-1.65.59-2.12,1.33l-.87-.62c.74-1.03,1.69-1.75,3-1.75,1.18,0,2.87.73,2.87,2.7v4.31c.02.64,0,1.3.24,1.93h-1.35Zm-.6-4.73c-1.16.33-3.29.82-3.29,2.38,0,.69.57,1.45,1.31,1.45.99,0,1.87-.68,2.45-1.4v-2.61l-.47.18Z"/>
          <path class="cls-1" d="m257.92,124.02h-1.26v-12.26h1.26v12.26Z"/>
        </g>
        <rect class="cls-1" x="259.44" y="122.57" width="1.18" height="1.52"/>
      </g>
    </g>
  </g>
</svg>