<?xml version="1.0" encoding="UTF-8"?>
<svg id="Capa_2" data-name="Capa 2" xmlns="http://www.w3.org/2000/svg" viewBox="0 0 445.61 273.96">
  <defs>
    <style>
      .cls-1 {
        fill: #4894ef;
      }

      .cls-2 {
        fill: #35b74b;
      }

      .cls-3, .cls-4 {
        fill: #a59b9b;
      }

      .cls-5, .cls-6 {
        fill: #bfbbbb;
      }

      .cls-7, .cls-8 {
        fill: #262d38;
      }

      .cls-9, .cls-10 {
        fill: #ccd9ea;
      }

      .cls-8 {
        font-family: Oswald-Bold, Oswald;
        font-size: 17.95px;
        font-weight: 700;
      }

      .cls-6, .cls-11, .cls-12, .cls-13, .cls-10, .cls-4, .cls-14, .cls-15, .cls-16 {
        stroke: #262d38;
        stroke-linecap: round;
        stroke-linejoin: round;
        stroke-width: .75px;
      }

      .cls-17 {
        fill: #dde8f2;
      }

      .cls-11 {
        fill: none;
      }

      .cls-18 {
        fill: #f9fbfc;
      }

      .cls-19 {
        letter-spacing: 0em;
      }

      .cls-12, .cls-20 {
        fill: #42cc5c;
      }

      .cls-13 {
        fill: #eab53d;
      }

      .cls-14, .cls-21 {
        fill: #ed443b;
      }

      .cls-22 {
        fill: #342d71;
      }

      .cls-15 {
        fill: #f9c764;
      }

      .cls-23 {
        fill: #d4e3fc;
      }

      .cls-24 {
        fill: #3d84ea;
      }

      .cls-25 {
        fill: #2d6dba;
      }

      .cls-26 {
        fill: #ff5b57;
      }

      .cls-16 {
        fill: #3dea62;
      }
    </style>
  </defs>
  <g id="OBJECTS">
    <g>
      <rect class="cls-18" x="0" width="445.61" height="273.96" rx="10.6" ry="10.6"/>
      <g>
        <g>
          <line class="cls-11" x1="420.54" y1="25.05" x2="426.17" y2="19.42"/>
          <line class="cls-11" x1="426.17" y1="25.05" x2="420.54" y2="19.42"/>
        </g>
        <rect class="cls-11" x="405.89" y="19.42" width="5.63" height="5.63"/>
        <line class="cls-11" x1="396.88" y1="25.05" x2="391.25" y2="25.05"/>
      </g>
      <path class="cls-23" d="m113.26,147.87h216.06c0,24.68-20.03,44.71-44.71,44.71h-126.64c-24.68,0-44.71-20.03-44.71-44.71h0Z"/>
      <path class="cls-23" d="m196.88,92.37h-20.95c-2.14,0-3.88-1.74-3.88-3.88h0c0-2.14-1.74-3.88-3.88-3.88h-38c-3.65,0-6.61,2.96-6.61,6.61h0c0,3.65-2.96,6.61-6.61,6.61h-17.91c-2.14,0-3.88,1.74-3.88,3.88h0c0,2.14,1.74,3.88,3.88,3.88h62.8c1.51,0,2.73-1.22,2.73-2.73h0c0-1.51,1.22-2.73,2.73-2.73h29.58c2.14,0,3.88-1.74,3.88-3.88h0c0-2.14-1.74-3.88-3.88-3.88Z"/>
      <path class="cls-23" d="m358.36,74.49h0c0-2.14-1.74-3.88-3.88-3.88h-84.16c-2.14,0-3.88,1.74-3.88,3.88h0c0,2.14-1.74,3.88-3.88,3.88h-11.54c-2.14,0-3.88,1.74-3.88,3.88h0c0,2.14,1.74,3.88,3.88,3.88h5.37c2.14,0,3.88,1.74,3.88,3.88h0c0,2.14,1.74,3.88,3.88,3.88h72.49c2.14,0,3.88-1.74,3.88-3.88h0c0-2.14-1.74-3.88-3.88-3.88h-5.37c-2.14,0-3.88-1.74-3.88-3.88h0c0-2.14,1.74-3.88,3.88-3.88h23.21c2.14,0,3.88-1.74,3.88-3.88Z"/>
      <g>
        <path class="cls-20" d="m210.04,121.01h0c-2.47,0-4.47-2-4.47-4.47v-24.59h8.94v24.59c0,2.47-2,4.47-4.47,4.47Z"/>
        <path class="cls-11" d="m210.04,121.01h0c-2.47,0-4.47-2-4.47-4.47v-24.59h8.94v24.59c0,2.47-2,4.47-4.47,4.47Z"/>
        <polyline class="cls-11" points="210.04 91.94 210.04 86.02 230.13 74.49 230.13 62.62 227.52 62.62"/>
        <rect class="cls-10" x="192.69" y="59.51" width="34.72" height="6.2"/>
        <g>
          <line class="cls-11" x1="210.04" y1="94.32" x2="210.04" y2="118.23"/>
          <line class="cls-11" x1="207.66" y1="94.32" x2="207.66" y2="116.45"/>
          <line class="cls-11" x1="212.43" y1="94.32" x2="212.43" y2="116.45"/>
        </g>
      </g>
      <g>
        <rect class="cls-15" x="221.22" y="144.88" width="114.8" height="5.59"/>
        <rect class="cls-13" x="336.03" y="144.88" width="7.1" height="5.59"/>
        <rect class="cls-15" x="226.35" y="83.56" width="104.55" height="61.32"/>
        <rect class="cls-13" x="330.9" y="83.56" width="2.96" height="61.32"/>
        <text class="cls-8" transform="translate(246.43 122.64)"><tspan x="0" y="0">C</tspan><tspan class="cls-19" x="10.11" y="0">A</tspan><tspan x="19.85" y="0">UTION</tspan></text>
        <g>
          <polygon class="cls-7" points="226.35 101 226.35 129.45 243.05 83.56 232.7 83.56 226.35 101"/>
          <polygon class="cls-7" points="330.9 144.88 330.9 118.76 321.39 144.88 330.9 144.88"/>
          <polygon class="cls-7" points="302.08 104.39 309.66 83.56 299.3 83.56 291.72 104.39 302.08 104.39"/>
          <polygon class="cls-7" points="283.67 126.52 276.99 144.88 287.34 144.88 294.02 126.52 283.67 126.52"/>
          <polygon class="cls-7" points="279.88 104.39 287.46 83.56 277.1 83.56 269.52 104.39 279.88 104.39"/>
          <polygon class="cls-7" points="261.47 126.52 254.78 144.88 265.14 144.88 271.82 126.52 261.47 126.52"/>
          <g>
            <polygon class="cls-7" points="315.02 126.52 305.87 126.52 299.19 144.88 309.54 144.88 316.22 126.52 315.02 126.52"/>
            <polygon class="cls-7" points="321.51 83.56 313.92 104.39 315.02 104.39 324.28 104.39 330.9 86.21 330.9 83.56 321.51 83.56"/>
          </g>
          <polygon class="cls-7" points="265.26 83.56 254.9 83.56 247.32 104.39 257.67 104.39 265.26 83.56"/>
          <polygon class="cls-7" points="239.26 126.52 232.58 144.88 242.94 144.88 249.62 126.52 242.23 126.52 239.26 126.52"/>
        </g>
      </g>
      <g>
        <path class="cls-3" d="m233.07,117.35c1.48,0,2.67-1.2,2.67-2.67v-32.42l4.67-3.56v-8.1l-5.32-4.05v7.35c0,1.12-.91,2.03-2.03,2.03-1.12,0-2.03-.91-2.03-2.03v-7.35l-5.32,4.05v8.1l4.68,3.57v32.41c0,1.48,1.2,2.67,2.67,2.67Zm-.98-2.67c0-.54.44-.98.98-.98s.98.44.98.98c0,.54-.44.98-.98.98s-.98-.44-.98-.98Z"/>
        <path class="cls-5" d="m233.06,115.65c-.54,0-.98-.44-.98-.98s.44-.98.98-.98v-37.77c-1.12,0-2.03-.91-2.03-2.03v-7.35l-5.32,4.05v8.1l4.68,3.57v32.41c0,1.47,1.19,2.67,2.67,2.67v-1.69Z"/>
        <path class="cls-11" d="m233.07,117.35c1.48,0,2.67-1.2,2.67-2.67v-32.42l4.67-3.56v-8.1l-5.32-4.05v7.35c0,1.12-.91,2.03-2.03,2.03-1.12,0-2.03-.91-2.03-2.03v-7.35l-5.32,4.05v8.1l4.68,3.57v32.41c0,1.48,1.2,2.67,2.67,2.67Zm-.98-2.67c0-.54.44-.98.98-.98s.98.44.98.98c0,.54-.44.98-.98.98s-.98-.44-.98-.98Z"/>
      </g>
      <g>
        <path class="cls-3" d="m180,128.14h0c1.82,0,3.29-1.47,3.29-3.29v-41.29h-6.58v41.29c0,1.82,1.47,3.29,3.29,3.29Z"/>
        <path class="cls-5" d="m176.71,83.56v41.29c0,1.82,1.47,3.29,3.29,3.29v-44.58h-3.29Z"/>
        <path class="cls-14" d="m176.71,94.32h6.58v30.53c0,1.82-1.47,3.29-3.29,3.29h0c-1.82,0-3.29-1.47-3.29-3.29v-30.53Z"/>
        <path class="cls-11" d="m180,128.14h0c1.82,0,3.29-1.47,3.29-3.29v-41.29h-6.58v41.29c0,1.82,1.47,3.29,3.29,3.29Z"/>
        <path class="cls-3" d="m183.28,83.56c0-2.5,2.03-4.53,4.53-4.53h-15.65c2.5,0,4.53,2.03,4.53,4.53h6.58Z"/>
        <path class="cls-5" d="m180,79.02h-7.82c2.5,0,4.53,2.03,4.53,4.54h3.29v-4.54Z"/>
        <path class="cls-11" d="m183.28,83.56c0-2.5,2.03-4.53,4.53-4.53h-15.65c2.5,0,4.53,2.03,4.53,4.53h6.58Z"/>
        <rect class="cls-6" x="172.17" y="70.79" width="15.65" height="8.24"/>
        <path class="cls-4" d="m194.92,79.02s-1.48-1.33-3.55-1.33-3.55,1.33-3.55,1.33v-8.24s1.48,1.33,3.55,1.33,3.55-1.33,3.55-1.33v8.24Z"/>
        <rect class="cls-6" x="194.92" y="69.01" width="3.23" height="11.79"/>
        <path class="cls-6" d="m172.17,70.79c-3.79,0-7.66,2.06-9.22,5.88-.16.39.16.81.57.74,1.86-.29,6.19-.66,8.64,1.62v-8.24Z"/>
      </g>
      <g>
        <path class="cls-13" d="m158.56,103.38h-3.27v-15.13c0-.9.73-1.64,1.64-1.64h0c.9,0,1.64.73,1.64,1.64v15.13Z"/>
        <path class="cls-13" d="m244.96,103.38h3.27v-15.13c0-.9-.73-1.64-1.64-1.64h0c-.9,0-1.64.73-1.64,1.64v15.13Z"/>
        <rect class="cls-24" x="150.87" y="106.8" width="101.78" height="50.96"/>
        <rect class="cls-25" x="150.87" y="106.8" width="101.78" height="5"/>
        <rect class="cls-11" x="150.87" y="106.8" width="101.78" height="50.96"/>
        <g>
          <rect class="cls-1" x="147.19" y="103.38" width="109.15" height="3.42"/>
          <rect class="cls-11" x="147.19" y="103.38" width="109.15" height="3.42"/>
        </g>
        <g>
          <polygon class="cls-25" points="230.13 119.69 173.39 119.69 173.39 144.88 175.46 144.88 175.46 122.37 230.13 122.37 230.13 119.69"/>
          <rect class="cls-11" x="173.39" y="119.69" width="56.74" height="25.19"/>
        </g>
      </g>
      <g>
        <rect class="cls-11" x="260.98" y="49.47" width="4.64" height="4.64"/>
        <rect class="cls-11" x="113.26" y="81.24" width="4.64" height="4.64"/>
        <rect class="cls-11" x="155.93" y="63.6" width="2.63" height="4.93"/>
        <rect class="cls-11" x="353.65" y="100.92" width="2.63" height="4.93"/>
        <g>
          <line class="cls-11" x1="104.25" y1="122.07" x2="104.25" y2="127.5"/>
          <line class="cls-11" x1="101.54" y1="124.79" x2="106.96" y2="124.79"/>
        </g>
        <g>
          <line class="cls-11" x1="287.01" y1="60.89" x2="287.01" y2="66.32"/>
          <line class="cls-11" x1="284.3" y1="63.6" x2="289.72" y2="63.6"/>
        </g>
        <g>
          <line class="cls-11" x1="254.78" y1="67.9" x2="254.78" y2="73.32"/>
          <line class="cls-11" x1="252.07" y1="70.61" x2="257.5" y2="70.61"/>
        </g>
        <g>
          <line class="cls-11" x1="340.41" y1="121.1" x2="340.41" y2="126.52"/>
          <line class="cls-11" x1="337.7" y1="123.81" x2="343.13" y2="123.81"/>
        </g>
      </g>
      <g>
        <path class="cls-14" d="m174.79,153.49h-72.13c-2.36,0-4.28,1.92-4.28,4.28h0c0,2.36,1.92,4.28,4.28,4.28h72.13c2.36,0,4.28-1.92,4.28-4.28h0c0-2.36-1.92-4.28-4.28-4.28Z"/>
        <path class="cls-26" d="m123.73,157.77c0-2.36,1.92-4.28,4.28-4.28h-25.35c-2.36,0-4.28,1.92-4.28,4.28s1.92,4.28,4.28,4.28h25.35c-2.36,0-4.28-1.92-4.28-4.28Z"/>
        <path class="cls-11" d="m174.79,153.49h-72.13c-2.36,0-4.28,1.92-4.28,4.28h0c0,2.36,1.92,4.28,4.28,4.28h72.13c2.36,0,4.28-1.92,4.28-4.28h0c0-2.36-1.92-4.28-4.28-4.28Z"/>
        <path class="cls-9" d="m136.19,68.9l-29.13,84.59h63.35l-29.13-84.59c-.83-2.41-4.25-2.41-5.08,0Z"/>
        <path class="cls-17" d="m137.98,67.19s-.03,0-.04,0c-.1.03-.19.07-.28.11-.03.01-.06.02-.09.04-.08.04-.16.09-.24.13-.04.02-.08.04-.11.06-.09.06-.18.14-.27.21-.02.02-.04.03-.05.04-.09.09-.18.18-.26.28,0,.01-.02.02-.03.03-.08.1-.15.21-.21.33,0,.01-.02.03-.03.04-.07.13-.13.27-.19.42l-29.13,84.59h20.95l10.72-86.4c-.25,0-.5.04-.74.1Z"/>
        <path class="cls-11" d="m136.19,68.9l-29.13,84.59h63.35l-29.13-84.59c-.83-2.41-4.25-2.41-5.08,0Z"/>
        <g>
          <polygon class="cls-14" points="107.05 153.49 138.73 153.49 170.4 153.49 163.91 134.66 113.54 134.66 107.05 153.49"/>
          <polygon class="cls-26" points="113.54 134.66 111.74 139.88 107.05 153.49 128 153.49 130.34 134.66 113.54 134.66"/>
          <polygon class="cls-11" points="107.05 153.49 138.73 153.49 170.4 153.49 163.91 134.66 113.54 134.66 107.05 153.49"/>
          <polygon class="cls-21" points="119.17 118.3 158.28 118.3 151.37 98.25 126.08 98.25 119.17 118.3"/>
          <polygon class="cls-26" points="134.86 98.25 126.08 98.25 124.6 102.54 119.17 118.3 132.37 118.3 134.86 98.25"/>
          <polygon class="cls-11" points="119.17 118.3 158.28 118.3 151.37 98.25 126.08 98.25 119.17 118.3"/>
          <path class="cls-21" d="m136.19,68.9l-4.48,12.99h14.03l-4.48-12.99c-.83-2.41-4.25-2.41-5.08,0Z"/>
          <path class="cls-26" d="m136.89,81.89l1.84-14.81c-.25,0-.5.04-.74.1-.01,0-.03,0-.04,0-.1.03-.19.07-.28.11-.03.01-.06.02-.09.04-.08.04-.16.09-.24.13-.04.02-.08.04-.11.06-.09.06-.18.14-.27.21-.02.02-.04.03-.05.04-.09.09-.18.18-.26.28,0,.01-.02.02-.03.03-.08.1-.15.21-.21.33,0,.01-.02.03-.03.04-.07.13-.13.27-.19.42l-4.48,12.99h5.18Z"/>
          <path class="cls-11" d="m136.19,68.9l-4.48,12.99h14.03l-4.48-12.99c-.83-2.41-4.25-2.41-5.08,0Z"/>
        </g>
      </g>
      <g>
        <rect class="cls-4" x="154.87" y="162.96" width="10.7" height="3.16"/>
        <line class="cls-11" x1="157.58" y1="162.96" x2="157.58" y2="166.12"/>
        <line class="cls-11" x1="162.86" y1="162.96" x2="162.86" y2="166.12"/>
        <rect class="cls-4" x="158.37" y="147.96" width="3.7" height="15.01"/>
        <g>
          <line class="cls-11" x1="158.37" y1="160.88" x2="162.07" y2="162.03"/>
          <line class="cls-11" x1="158.37" y1="159.31" x2="162.07" y2="160.47"/>
          <line class="cls-11" x1="158.37" y1="157.74" x2="162.07" y2="158.9"/>
          <line class="cls-11" x1="158.37" y1="156.17" x2="162.07" y2="157.33"/>
          <line class="cls-11" x1="158.37" y1="154.6" x2="162.07" y2="155.76"/>
          <line class="cls-11" x1="158.37" y1="153.03" x2="162.07" y2="154.19"/>
          <line class="cls-11" x1="158.37" y1="151.46" x2="162.07" y2="152.62"/>
          <line class="cls-11" x1="158.37" y1="149.89" x2="162.07" y2="151.05"/>
          <line class="cls-11" x1="158.37" y1="148.32" x2="162.07" y2="149.48"/>
        </g>
      </g>
      <g>
        <rect class="cls-4" x="168.55" y="158.88" width="10.7" height="3.16" transform="translate(373.55 33.46) rotate(104.84)"/>
        <line class="cls-11" x1="176.1" y1="158.31" x2="173.05" y2="157.5"/>
        <line class="cls-11" x1="174.75" y1="163.41" x2="171.7" y2="162.6"/>
        <g>
          <rect class="cls-4" x="180.83" y="155.28" width="3.7" height="15.01" transform="translate(386.83 27.9) rotate(104.84)"/>
          <line class="cls-11" x1="177.92" y1="159.61" x2="175.85" y2="162.88"/>
          <line class="cls-11" x1="179.44" y1="160.01" x2="177.37" y2="163.29"/>
          <line class="cls-11" x1="180.95" y1="160.41" x2="178.89" y2="163.69"/>
          <line class="cls-11" x1="182.47" y1="160.81" x2="180.4" y2="164.09"/>
          <line class="cls-11" x1="183.99" y1="161.21" x2="181.92" y2="164.49"/>
          <line class="cls-11" x1="185.5" y1="161.62" x2="183.44" y2="164.89"/>
          <line class="cls-11" x1="187.02" y1="162.02" x2="184.95" y2="165.3"/>
          <line class="cls-11" x1="188.54" y1="162.42" x2="186.47" y2="165.7"/>
          <line class="cls-11" x1="190.05" y1="162.82" x2="187.99" y2="166.1"/>
        </g>
      </g>
      <g>
        <path class="cls-20" d="m249.73,153.49h-23.47c-3.76,0-6.81,3.05-6.81,6.81h0c0,3.76,3.05,6.81,6.81,6.81h23.47l7.1-3.06v-7.5l-7.1-3.06Z"/>
        <polygon class="cls-2" points="254.78 164.92 256.83 164.04 256.83 156.54 254.78 155.66 254.78 164.92"/>
        <path class="cls-11" d="m249.73,153.49h-23.47c-3.76,0-6.81,3.05-6.81,6.81h0c0,3.76,3.05,6.81,6.81,6.81h23.47l7.1-3.06v-7.5l-7.1-3.06Z"/>
        <rect class="cls-12" x="256.83" y="154.42" width="3.95" height="11.74"/>
        <polygon class="cls-4" points="314.71 157.1 311.75 159.01 260.77 159.01 260.77 161.57 311.75 161.57 314.71 163.48 321.72 161.42 321.72 159.16 314.71 157.1"/>
        <line class="cls-16" x1="249.73" y1="153.49" x2="249.73" y2="167.1"/>
        <g>
          <line class="cls-11" x1="246.18" y1="160.29" x2="224.28" y2="160.29"/>
          <line class="cls-11" x1="246.18" y1="163.55" x2="225.71" y2="163.55"/>
          <line class="cls-11" x1="246.18" y1="157.04" x2="225.71" y2="157.04"/>
        </g>
      </g>
      <g>
        <line class="cls-11" x1="322.77" y1="171.97" x2="332.43" y2="171.97"/>
        <line class="cls-11" x1="315.76" y1="171.97" x2="320.3" y2="171.97"/>
        <line class="cls-11" x1="259.64" y1="171.97" x2="312.9" y2="171.97"/>
        <line class="cls-11" x1="196.71" y1="183.44" x2="187.04" y2="183.44"/>
        <line class="cls-11" x1="203.71" y1="183.44" x2="199.17" y2="183.44"/>
        <line class="cls-11" x1="183.42" y1="183.44" x2="126.36" y2="183.44"/>
        <line class="cls-11" x1="185.94" y1="175.75" x2="176.22" y2="175.75"/>
        <line class="cls-11" x1="233.28" y1="175.75" x2="190.5" y2="175.75"/>
        <line class="cls-11" x1="259.83" y1="183.44" x2="206.57" y2="183.44"/>
        <line class="cls-11" x1="132.76" y1="174.97" x2="137.3" y2="174.97"/>
        <line class="cls-11" x1="90.47" y1="174.97" x2="129.9" y2="174.97"/>
      </g>
      <g>
        <g>
          <path class="cls-22" d="m30.27,19h-12.28l-.03,1.44c0,.37-.02.73-.02,1.09-.06,2.58-.11,5.06.11,7.36.1,1.03.26,2.03.5,2.98l2.58-2.09,9.69-7.85,3.63-2.94,1.06-.86v-3.38l-5.23,4.24Zm-9.42,7.63c-.05-1.46-.02-3.02.02-4.69h5.77l-5.79,4.69Z"/>
          <path class="cls-22" d="m35.48,22.58l-2.91,2.36-10.37,8.4-2.32,1.88c.45.77.97,1.46,1.58,2.1,1.15,1.19,2.59,2.15,4.34,2.89.04.02.13.07.2.1l.71.39.71-.4s.11-.06.15-.08c3.74-1.57,6.07-4.13,7.14-7.81.57-1.97.76-4.15.8-6.46,0-.14,0-.28,0-.42v-1.32c0-.53-.01-1.07-.02-1.62Zm-3.6,9c-.8,2.76-2.41,4.56-5.18,5.8-1.19-.53-2.16-1.16-2.95-1.93l8.69-7.04c-.1,1.13-.28,2.19-.56,3.17Z"/>
        </g>
        <g>
          <g>
            <path class="cls-22" d="m40.59,19.15v2.93h4.36v-2.93h2.37v7.63h-2.37v-3.29h-4.36v3.29h-2.37v-7.63h2.37Z"/>
            <path class="cls-22" d="m49.3,21.41c.24-.49.59-.91,1.04-1.28s1.01-.65,1.67-.86c.66-.21,1.4-.31,2.23-.31s1.58.1,2.23.31c.65.21,1.21.49,1.66.86.45.36.8.79,1.04,1.28.24.49.36,1.02.36,1.59s-.12,1.07-.36,1.56-.59.9-1.04,1.26c-.45.36-1.01.64-1.66.84-.65.2-1.4.3-2.23.3s-1.57-.1-2.23-.3c-.66-.2-1.22-.48-1.67-.84-.45-.36-.8-.78-1.04-1.26s-.36-1-.36-1.56.12-1.1.36-1.59Zm2.17,2.52c.11.3.27.58.51.82.23.24.53.44.91.58.37.15.83.22,1.36.22s.99-.07,1.36-.22c.37-.15.67-.34.91-.58.23-.24.4-.51.51-.82.11-.3.16-.61.16-.94s-.05-.66-.16-.97c-.11-.31-.27-.59-.51-.84-.23-.25-.53-.44-.91-.59-.37-.15-.83-.22-1.36-.22s-.99.07-1.36.22c-.37.15-.67.34-.91.59-.23.25-.4.53-.51.84-.11.31-.16.64-.16.97s.05.63.16.94Z"/>
            <path class="cls-22" d="m66.97,19.15c.48,0,.92.06,1.31.17.39.11.72.26,1,.45.28.19.49.42.63.67.15.25.22.53.22.82,0,.45-.13.84-.4,1.17-.27.33-.7.58-1.31.75v.02c.29.06.53.14.72.26.19.12.35.26.47.42s.21.34.26.53c.06.19.09.38.11.58,0,.12.02.26.03.43,0,.16.03.33.05.5.03.17.07.33.12.49.06.15.14.28.25.39h-2.37c-.13-.24-.21-.53-.24-.87-.03-.33-.08-.66-.14-.96-.08-.4-.25-.69-.51-.88-.26-.19-.69-.28-1.28-.28h-2.37v2.98h-2.37v-7.63h5.81Zm-.85,3.45c.54,0,.95-.09,1.22-.26.27-.17.41-.45.41-.83s-.14-.64-.41-.81c-.27-.17-.68-.25-1.22-.25h-2.6v2.15h2.6Z"/>
            <path class="cls-22" d="m74.42,19.15v7.63h-2.37v-7.63h2.37Z"/>
            <path class="cls-22" d="m81.6,20.56h-5.33v-1.41h8.49v1.33l-5.78,4.9h5.93v1.41h-9.09v-1.33l5.78-4.9Z"/>
            <path class="cls-22" d="m86.19,21.41c.24-.49.59-.91,1.04-1.28s1.01-.65,1.67-.86c.66-.21,1.4-.31,2.23-.31s1.58.1,2.23.31c.65.21,1.21.49,1.66.86s.8.79,1.04,1.28c.24.49.36,1.02.36,1.59s-.12,1.07-.36,1.56-.59.9-1.04,1.26c-.45.36-1.01.64-1.66.84-.65.2-1.4.3-2.23.3s-1.57-.1-2.23-.3c-.66-.2-1.22-.48-1.67-.84-.45-.36-.8-.78-1.04-1.26s-.36-1-.36-1.56.12-1.1.36-1.59Zm2.17,2.52c.11.3.27.58.51.82.23.24.53.44.91.58.37.15.83.22,1.36.22s.99-.07,1.36-.22c.37-.15.67-.34.91-.58.23-.24.4-.51.51-.82.11-.3.16-.61.16-.94s-.05-.66-.16-.97c-.11-.31-.27-.59-.51-.84-.23-.25-.53-.44-.91-.59-.37-.15-.83-.22-1.36-.22s-.99.07-1.36.22c-.37.15-.67.34-.91.59-.23.25-.4.53-.51.84-.11.31-.16.64-.16.97s.05.63.16.94Z"/>
            <path class="cls-22" d="m100.4,19.15l4.5,5.12h.03v-5.12h2.22v7.63h-2.37l-4.48-5.11h-.03v5.11h-2.22v-7.63h2.36Z"/>
            <path class="cls-22" d="m108.38,20.56v-1.41h8.83v1.41h-3.23v6.22h-2.37v-6.22h-3.23Z"/>
            <path class="cls-22" d="m126.52,19.15v1.41h-5.69v1.64h5.22v1.3h-5.22v1.87h5.81v1.41h-8.18v-7.63h8.06Z"/>
          </g>
          <g>
            <path class="cls-22" d="m38.23,36.77v-6.82h2.91v.92h-1.93v2.07h1.68v.92h-1.68v2.91h-.98Z"/>
            <path class="cls-22" d="m45.36,29.96v5.28c0,.22-.04.43-.12.62-.08.19-.19.36-.34.5-.15.15-.32.26-.51.34-.19.08-.4.12-.61.12s-.42-.04-.61-.12c-.19-.08-.36-.2-.5-.34-.15-.15-.26-.31-.34-.5-.08-.19-.12-.39-.12-.62v-5.28h.98v5.19c0,.24.06.42.17.54.11.11.26.17.43.17s.32-.06.43-.17c.11-.11.17-.29.17-.54v-5.19h.98Z"/>
            <path class="cls-22" d="m46.67,36.77v-6.82h.94l1.47,4.11h.02v-4.11h.98v6.82h-.92l-1.49-4.1h-.02v4.1h-.98Z"/>
            <path class="cls-22" d="m51.39,36.77v-6.82h1.45c.56,0,.99.15,1.28.46s.44.74.44,1.3v3.19c0,.64-.15,1.11-.46,1.41-.31.3-.75.45-1.34.45h-1.36Zm.98-5.9v4.98h.45c.27,0,.47-.07.58-.21.11-.14.17-.35.17-.65v-3.28c0-.27-.05-.48-.16-.62-.11-.15-.31-.22-.59-.22h-.45Z"/>
            <path class="cls-22" d="m55.34,36.77l1.52-6.82h.81l1.52,6.82h-.98l-.29-1.46h-1.33l-.29,1.46h-.98Zm2.41-2.38l-.48-2.47h-.02l-.48,2.47h.98Z"/>
            <path class="cls-22" d="m63.21,34.83v.42c0,.21-.04.41-.12.6-.08.19-.19.36-.33.5-.14.15-.3.26-.49.35s-.39.13-.61.13c-.19,0-.37-.03-.56-.08s-.36-.14-.52-.27c-.15-.13-.28-.29-.38-.49-.1-.2-.15-.46-.15-.77v-3.75c0-.22.04-.43.11-.62.08-.19.18-.36.33-.5.14-.14.31-.25.5-.33.19-.08.41-.12.65-.12.46,0,.83.15,1.12.45.14.15.25.32.33.52.08.2.12.42.12.66v.38h-.98v-.33c0-.19-.05-.36-.16-.5-.11-.14-.26-.21-.44-.21-.24,0-.4.08-.48.22-.08.15-.12.34-.12.57v3.48c0,.2.04.36.13.5s.24.2.46.2c.06,0,.13-.01.21-.03.07-.02.14-.06.21-.11.06-.05.11-.12.14-.21.04-.09.06-.2.06-.34v-.34h.98Z"/>
            <path class="cls-22" d="m64.46,36.77v-6.82h.98v6.82h-.98Z"/>
            <path class="cls-22" d="m66.76,31.57c0-.27.05-.52.14-.73.1-.21.22-.39.38-.53.15-.13.33-.24.52-.31.19-.07.39-.11.59-.11s.39.04.59.11c.19.07.37.17.53.31.15.14.28.32.37.53.1.21.14.45.14.73v3.6c0,.29-.05.53-.14.74-.1.2-.22.37-.37.51-.16.14-.34.25-.53.32-.19.07-.39.11-.59.11s-.39-.04-.59-.11c-.19-.07-.37-.18-.52-.32-.16-.13-.29-.3-.38-.51-.1-.2-.14-.45-.14-.74v-3.6Zm.98,3.6c0,.24.07.41.2.52.13.11.29.17.46.17s.33-.06.46-.17c.13-.11.2-.29.2-.52v-3.6c0-.24-.07-.41-.2-.52-.13-.11-.29-.17-.46-.17s-.33.06-.46.17c-.13.11-.2.29-.2.52v3.6Zm.04-5.51l.86-1.35h1.03l-1.26,1.35h-.63Z"/>
            <path class="cls-22" d="m71.29,36.77v-6.82h.94l1.47,4.11h.02v-4.11h.98v6.82h-.92l-1.49-4.1h-.02v4.1h-.98Z"/>
            <path class="cls-22" d="m81.38,29.96v5.28c0,.22-.04.43-.12.62-.08.19-.19.36-.34.5-.15.15-.32.26-.51.34-.19.08-.4.12-.61.12s-.42-.04-.61-.12c-.19-.08-.36-.2-.5-.34-.15-.15-.26-.31-.34-.5-.08-.19-.12-.39-.12-.62v-5.28h.98v5.19c0,.24.06.42.17.54.11.11.26.17.43.17s.32-.06.43-.17c.11-.11.17-.29.17-.54v-5.19h.98Z"/>
            <path class="cls-22" d="m82.69,36.77v-6.82h.94l1.47,4.11h.02v-4.11h.98v6.82h-.92l-1.49-4.1h-.02v4.1h-.98Z"/>
            <path class="cls-22" d="m87.43,36.77v-6.82h.98v6.82h-.98Z"/>
            <path class="cls-22" d="m93.1,29.96l-1.4,6.82h-.86l-1.39-6.82h1.03l.78,4.76h.02l.78-4.76h1.03Z"/>
            <path class="cls-22" d="m94.12,36.77v-6.82h2.91v.92h-1.93v2h1.68v.92h-1.68v2h1.93v.98h-2.91Z"/>
            <path class="cls-22" d="m98.09,36.77v-6.82h1.57c1.15,0,1.72.67,1.72,2,0,.4-.06.74-.19,1.02-.12.28-.34.51-.66.68l1.05,3.11h-1.03l-.91-2.91h-.58v2.91h-.98Zm.98-5.9v2.13h.56c.17,0,.31-.02.41-.07.1-.05.18-.12.24-.21.05-.09.09-.2.11-.33.02-.13.03-.28.03-.45s0-.32-.03-.45c-.02-.13-.06-.24-.11-.34-.12-.18-.35-.27-.69-.27h-.51Z"/>
            <path class="cls-22" d="m105.76,31.92h-.98v-.22c0-.22-.05-.42-.16-.58-.11-.16-.28-.24-.53-.24-.13,0-.24.03-.33.08-.08.05-.15.11-.2.19-.05.08-.09.18-.11.28s-.03.22-.03.33c0,.13,0,.25.01.34,0,.09.03.17.07.24.04.07.09.13.17.18.07.05.17.1.3.15l.75.3c.22.08.39.18.53.29.13.11.24.24.32.39.07.15.12.33.14.52.03.19.04.42.04.67,0,.29-.03.55-.09.8-.06.25-.15.45-.28.63-.13.18-.31.32-.53.42-.22.1-.48.15-.79.15-.24,0-.46-.04-.66-.12-.2-.08-.38-.2-.53-.34-.15-.15-.26-.32-.35-.51s-.13-.41-.13-.64v-.36h.98v.31c0,.18.05.34.16.48.11.14.28.22.53.22.17,0,.29-.02.39-.07.09-.05.16-.12.22-.21.05-.09.08-.2.09-.32,0-.12.01-.26.01-.42,0-.18,0-.33-.02-.44-.01-.11-.04-.21-.08-.28-.04-.07-.1-.13-.18-.17-.07-.04-.17-.09-.29-.14l-.7-.29c-.42-.17-.7-.4-.85-.68-.14-.28-.22-.64-.22-1.07,0-.26.03-.5.11-.73.07-.23.18-.43.32-.59.13-.17.3-.3.51-.4.21-.1.45-.15.74-.15.24,0,.46.04.67.13.2.09.37.21.52.35.29.31.44.66.44,1.05v.48Z"/>
            <path class="cls-22" d="m106.94,36.77v-6.82h.98v6.82h-.98Z"/>
            <path class="cls-22" d="m109.94,36.77v-5.9h-1.13v-.92h3.24v.92h-1.13v5.9h-.98Z"/>
            <path class="cls-22" d="m111.94,36.77l1.52-6.82h.81l1.52,6.82h-.98l-.29-1.46h-1.33l-.29,1.46h-.98Zm2.41-2.38l-.48-2.47h-.02l-.48,2.47h.98Z"/>
            <path class="cls-22" d="m116.71,36.77v-6.82h1.57c1.15,0,1.72.67,1.72,2,0,.4-.06.74-.19,1.02-.12.28-.34.51-.66.68l1.05,3.11h-1.03l-.91-2.91h-.58v2.91h-.98Zm.98-5.9v2.13h.56c.17,0,.31-.02.41-.07.1-.05.18-.12.24-.21.05-.09.09-.2.11-.33.02-.13.03-.28.03-.45s0-.32-.03-.45c-.02-.13-.06-.24-.11-.34-.12-.18-.35-.27-.69-.27h-.51Z"/>
            <path class="cls-22" d="m121.24,36.77v-6.82h.98v6.82h-.98Z"/>
            <path class="cls-22" d="m123.16,36.77l1.52-6.82h.81l1.52,6.82h-.98l-.29-1.46h-1.33l-.29,1.46h-.98Zm2.41-2.38l-.48-2.47h-.02l-.48,2.47h.98Z"/>
          </g>
        </g>
      </g>
    </g>
  </g>
</svg>