<?xml version="1.0" encoding="UTF-8"?>
<svg id="Capa_2" data-name="Capa 2" xmlns="http://www.w3.org/2000/svg" viewBox="0 0 764.5 123.8">
  <g id="Capa_1-2" data-name="Capa 1">
    <g>
      <g>
        <path d="M639.02,102.52c-16.23-.5-31.31,1.04-46.27-.87-14.64-1.87-26.81-15.88-27.07-30.68-.23-13.2-.26-26.41,.01-39.61,.34-16.49,14.74-30.88,31.25-31.15,16.63-.27,33.26-.28,49.89,.01,16.1,.28,30.39,14.47,30.77,30.52,.32,13.66,.12,27.34,.04,41.01-.04,5.76-2.27,10.87-5.24,15.7-1.12,1.81-2.13,2.85-4.3,.98-4.02-3.45-8.62-6.09-13.35-8.46-1.82-.91-2.24-1.66-.73-3.38,3.88-4.44,5.04-9.79,4.93-15.59-.13-6.99,.01-13.98-.04-20.97-.09-12.98-9.03-22.03-21.95-22.13-9.95-.08-19.89-.04-29.84,0-12.4,.04-21.05,7.04-22.27,19.2-.98,9.85-1.21,19.88,.22,29.73,1.49,10.31,9.56,17.14,19.93,17.41,6.99,.18,13.99,.16,20.98,.03,2.55-.05,3.88,.52,4.45,3.29,1.12,5.43,4.7,9.65,8.6,14.97Z" fill="#8b8b8e"/>
        <path d="M712.03,67.25c0-4.35-.11-8.7,.02-13.04,.37-12.17,8.7-20.26,20.75-20.27,3.57,0,7.14,0,10.72,0,11.87,0,20.3,7.85,20.74,19.82,.33,8.99,.31,18.02,.01,27.01-.4,12.14-8.86,19.99-21.01,20-3.57,0-7.14,0-10.72,0-11.52-.01-19.93-7.96-20.45-19.55-.21-4.65-.03-9.31-.03-13.97-.01,0-.02,0-.03,0Zm14.12-.12s.05,0,.07,0c0,2.8-.22,5.61,.05,8.38,.61,6.28,4.17,10.04,9.38,10.26,9.44,.39,12.76-1.48,14.02-9.09,1.09-6.57,1.14-13.31-.27-19.9-.78-3.66-2.79-6.61-6.72-7.6-10.27-2.6-16.37,2.14-16.53,12.82-.03,1.71,0,3.42,0,5.13Z" fill="#8b8b8e"/>
        <path d="M675,123.8c-11.47-8.89-24.49-15.52-34.09-26.57-4.98-5.73-8.07-12.16-6.27-20.06,.34-1.47,.54-2.89,2.64-1.6,8.6,5.28,18.12,8.94,26.31,14.93,11.82,8.65,15.91,20.34,11.41,33.3Z" fill="#fc831f"/>
        <path d="M705.77,73.39c0,7.91-.15,15.83,.07,23.74,.1,3.77-1.54,3.89-4.14,2.61-6.48-3.2-9.77-8.86-9.94-15.71-.37-15.66-.06-31.34-.2-47.01-.03-3.48,1.69-2.96,3.76-2.26,5.38,1.8,10.01,8.68,10.39,15.36,.03,.46,.04,.93,.04,1.4,0,7.29,0,14.59,0,21.88Z" fill="#8b8b8e"/>
      </g>
      <g>
        <g>
          <path d="M53.27,24.35H.43l-.12,6.2c-.03,1.58-.07,3.14-.1,4.7-.24,11.09-.47,21.78,.49,31.67,.43,4.44,1.11,8.72,2.13,12.8l11.08-8.97L55.59,36.99l15.61-12.64,4.57-3.7V6.13l-22.5,18.22ZM12.75,57.16c-.21-6.28-.08-13.01,.07-20.17h24.84L12.75,57.16Z" fill="#1c4da1"/>
          <path d="M75.66,39.78l-12.52,10.14L18.54,86.04l-9.97,8.07c1.91,3.3,4.18,6.29,6.8,9.02,4.93,5.11,11.13,9.23,18.66,12.43,.15,.08,.54,.28,.85,.45l3.07,1.67,3.05-1.72c.21-.12,.49-.27,.63-.34,16.07-6.77,26.11-17.76,30.7-33.59,2.45-8.46,3.26-17.85,3.42-27.8,0-.6,.02-1.21,.02-1.81v-5.68c-.02-2.3-.05-4.62-.1-6.96Zm-15.49,38.73c-3.44,11.88-10.35,19.62-22.28,24.95-5.11-2.28-9.3-5-12.68-8.3l37.38-30.26c-.44,4.86-1.19,9.41-2.41,13.61Z" fill="#1c4da1"/>
        </g>
        <g>
          <g>
            <path d="M97.63,25v12.6h18.77v-12.6h10.2V57.83h-10.2v-14.16h-18.77v14.16h-10.2V25h10.2Z" fill="#1c4da1"/>
            <path d="M135.11,34.72c1.04-2.1,2.53-3.93,4.48-5.5s4.34-2.79,7.18-3.68c2.84-.89,6.03-1.33,9.58-1.33s6.8,.44,9.61,1.33c2.81,.89,5.2,2.12,7.14,3.68s3.44,3.4,4.48,5.5c1.04,2.1,1.56,4.38,1.56,6.83s-.52,4.62-1.56,6.69c-1.04,2.07-2.53,3.87-4.48,5.4-1.95,1.53-4.33,2.74-7.14,3.61-2.81,.87-6.02,1.31-9.61,1.31s-6.74-.44-9.58-1.31c-2.84-.87-5.23-2.08-7.18-3.61-1.95-1.53-3.44-3.33-4.48-5.4-1.04-2.07-1.56-4.3-1.56-6.69s.52-4.73,1.56-6.83Zm9.32,10.85c.45,1.3,1.18,2.48,2.18,3.52,1,1.04,2.29,1.88,3.9,2.51,1.6,.63,3.55,.94,5.84,.94s4.24-.31,5.85-.94c1.6-.63,2.9-1.46,3.9-2.51,1-1.04,1.72-2.21,2.18-3.52,.45-1.3,.68-2.64,.68-4.02s-.23-2.84-.68-4.19c-.45-1.35-1.18-2.55-2.18-3.61-1-1.06-2.3-1.9-3.9-2.53-1.6-.63-3.55-.94-5.85-.94s-4.24,.31-5.84,.94c-1.6,.63-2.9,1.47-3.9,2.53-1,1.06-1.72,2.26-2.18,3.61-.45,1.35-.68,2.74-.68,4.19s.23,2.72,.68,4.02Z" fill="#1c4da1"/>
            <path d="M211.09,25c2.08,0,3.95,.24,5.62,.71,1.67,.48,3.09,1.13,4.29,1.95,1.19,.83,2.1,1.79,2.73,2.87,.63,1.09,.94,2.26,.94,3.52,0,1.93-.57,3.6-1.72,5.01-1.15,1.41-3.02,2.48-5.62,3.22v.09c1.26,.25,2.29,.62,3.12,1.13,.82,.51,1.49,1.1,2.01,1.79,.52,.69,.9,1.45,1.14,2.28,.24,.83,.4,1.66,.49,2.48,.04,.52,.09,1.13,.13,1.84,.04,.71,.12,1.43,.23,2.16,.11,.74,.28,1.43,.52,2.09,.24,.66,.59,1.22,1.07,1.68h-10.2c-.56-1.04-.91-2.28-1.04-3.73-.13-1.44-.32-2.82-.58-4.14-.35-1.72-1.08-2.97-2.21-3.77-1.13-.8-2.97-1.2-5.52-1.2h-10.2v12.83h-10.2V25h25Zm-3.64,14.85c2.34,0,4.09-.37,5.26-1.1,1.17-.74,1.75-1.93,1.75-3.59s-.58-2.75-1.75-3.47c-1.17-.72-2.92-1.08-5.26-1.08h-11.17v9.24h11.17Z" fill="#1c4da1"/>
            <path d="M243.17,25V57.83h-10.2V25h10.2Z" fill="#1c4da1"/>
            <path d="M274.02,31.07h-22.93v-6.07h36.5v5.7l-24.87,21.06h25.52v6.07h-39.1v-5.7l24.87-21.06Z" fill="#1c4da1"/>
            <path d="M293.77,34.72c1.04-2.1,2.53-3.93,4.48-5.5,1.95-1.56,4.34-2.79,7.18-3.68,2.84-.89,6.03-1.33,9.58-1.33s6.8,.44,9.61,1.33c2.81,.89,5.2,2.12,7.14,3.68s3.44,3.4,4.48,5.5c1.04,2.1,1.56,4.38,1.56,6.83s-.52,4.62-1.56,6.69c-1.04,2.07-2.53,3.87-4.48,5.4-1.95,1.53-4.33,2.74-7.14,3.61-2.81,.87-6.02,1.31-9.61,1.31s-6.74-.44-9.58-1.31c-2.84-.87-5.23-2.08-7.18-3.61-1.95-1.53-3.44-3.33-4.48-5.4s-1.56-4.3-1.56-6.69,.52-4.73,1.56-6.83Zm9.32,10.85c.45,1.3,1.18,2.48,2.18,3.52,1,1.04,2.29,1.88,3.9,2.51,1.6,.63,3.55,.94,5.85,.94s4.24-.31,5.85-.94c1.6-.63,2.9-1.46,3.9-2.51,1-1.04,1.72-2.21,2.18-3.52,.45-1.3,.68-2.64,.68-4.02s-.23-2.84-.68-4.19c-.45-1.35-1.18-2.55-2.18-3.61-1-1.06-2.3-1.9-3.9-2.53-1.6-.63-3.55-.94-5.85-.94s-4.24,.31-5.85,.94c-1.6,.63-2.9,1.47-3.9,2.53-1,1.06-1.72,2.26-2.18,3.61-.45,1.35-.68,2.74-.68,4.19s.23,2.72,.68,4.02Z" fill="#1c4da1"/>
            <path d="M354.88,25l19.35,22.03h.13V25h9.55V57.83h-10.2l-19.29-21.98h-.13v21.98h-9.55V25h10.13Z" fill="#1c4da1"/>
            <path d="M389.24,31.07v-6.07h37.99v6.07h-13.9v26.77h-10.2V31.07h-13.9Z" fill="#1c4da1"/>
            <path d="M467.23,25v6.07h-24.48v7.04h22.47v5.61h-22.47v8.05h25v6.07h-35.2V25h34.68Z" fill="#1c4da1"/>
          </g>
          <g>
            <path d="M87.48,100.8v-29.31h12.52v3.95h-8.32v8.89h7.25v3.95h-7.25v12.52h-4.2Z" fill="#1c4da1"/>
            <path d="M118.15,71.49v22.73c0,.96-.17,1.85-.51,2.66-.34,.81-.83,1.53-1.46,2.16-.63,.63-1.36,1.13-2.18,1.48-.82,.36-1.7,.54-2.63,.54s-1.81-.18-2.61-.54c-.81-.36-1.53-.85-2.16-1.48-.63-.63-1.13-1.35-1.48-2.16-.36-.81-.54-1.69-.54-2.66v-22.73h4.2v22.31c0,1.04,.25,1.81,.74,2.31,.49,.49,1.11,.74,1.85,.74s1.36-.25,1.85-.74c.49-.49,.74-1.26,.74-2.31v-22.31h4.2Z" fill="#1c4da1"/>
            <path d="M123.79,100.8v-29.31h4.03l6.34,17.66h.08v-17.66h4.2v29.31h-3.95l-6.42-17.62h-.08v17.62h-4.2Z" fill="#1c4da1"/>
            <path d="M144.09,100.8v-29.31h6.22c2.41,0,4.25,.66,5.5,1.98,1.25,1.32,1.87,3.18,1.87,5.6v13.71c0,2.74-.67,4.77-2,6.07-1.33,1.3-3.25,1.96-5.74,1.96h-5.85Zm4.2-25.36v21.41h1.94c1.18,0,2.02-.29,2.51-.89,.49-.59,.74-1.52,.74-2.78v-14.12c0-1.15-.23-2.04-.7-2.68-.47-.63-1.32-.95-2.55-.95h-1.94Z" fill="#1c4da1"/>
            <path d="M161.09,100.8l6.55-29.31h3.5l6.55,29.31h-4.2l-1.24-6.3h-5.72l-1.24,6.3h-4.2Zm10.37-10.25l-2.06-10.62h-.08l-2.06,10.62h4.2Z" fill="#1c4da1"/>
            <path d="M194.93,92.44v1.81c0,.91-.17,1.76-.51,2.57-.34,.81-.82,1.53-1.42,2.16-.6,.63-1.31,1.13-2.12,1.5-.81,.37-1.68,.56-2.61,.56-.8,0-1.61-.11-2.43-.33-.82-.22-1.56-.6-2.22-1.15-.66-.55-1.2-1.26-1.63-2.12-.43-.86-.64-1.97-.64-3.31v-16.14c0-.96,.16-1.85,.49-2.68s.8-1.54,1.4-2.14,1.32-1.08,2.16-1.42c.84-.34,1.76-.51,2.78-.51,1.98,0,3.58,.65,4.82,1.94,.6,.63,1.08,1.38,1.42,2.24,.34,.86,.51,1.81,.51,2.82v1.65h-4.2v-1.4c0-.82-.23-1.54-.7-2.14-.47-.6-1.1-.91-1.89-.91-1.04,0-1.74,.32-2.08,.97-.34,.65-.51,1.46-.51,2.45v14.99c0,.85,.19,1.56,.56,2.14,.37,.58,1.04,.86,2,.86,.27,0,.57-.05,.89-.14,.32-.1,.61-.25,.88-.47,.25-.22,.45-.52,.62-.91,.16-.38,.25-.86,.25-1.44v-1.44h4.2Z" fill="#1c4da1"/>
            <path d="M200.33,100.8v-29.31h4.2v29.31h-4.2Z" fill="#1c4da1"/>
            <path d="M210.21,78.4c0-1.18,.21-2.22,.62-3.13s.96-1.66,1.65-2.26c.66-.58,1.41-1.02,2.24-1.32,.84-.3,1.68-.45,2.53-.45s1.69,.15,2.53,.45c.84,.3,1.6,.74,2.28,1.32,.66,.6,1.19,1.36,1.61,2.26s.62,1.95,.62,3.13v15.48c0,1.24-.21,2.29-.62,3.17-.41,.88-.95,1.61-1.61,2.18-.69,.6-1.45,1.06-2.28,1.36-.84,.3-1.68,.45-2.53,.45s-1.7-.15-2.53-.45c-.84-.3-1.59-.75-2.24-1.36-.69-.58-1.24-1.3-1.65-2.18-.41-.88-.62-1.94-.62-3.17v-15.48Zm4.2,15.48c0,1.02,.28,1.76,.84,2.24,.56,.48,1.23,.72,2,.72s1.43-.24,2-.72c.56-.48,.84-1.23,.84-2.24v-15.48c0-1.02-.28-1.76-.84-2.24-.56-.48-1.23-.72-2-.72s-1.43,.24-2,.72c-.56,.48-.84,1.23-.84,2.24v15.48Zm.16-23.71l3.71-5.81h4.45l-5.43,5.81h-2.72Z" fill="#1c4da1"/>
            <path d="M229.68,100.8v-29.31h4.03l6.34,17.66h.08v-17.66h4.2v29.31h-3.95l-6.42-17.62h-.08v17.62h-4.2Z" fill="#1c4da1"/>
            <path d="M273.07,71.49v22.73c0,.96-.17,1.85-.51,2.66-.34,.81-.83,1.53-1.46,2.16-.63,.63-1.36,1.13-2.18,1.48s-1.7,.54-2.63,.54-1.81-.18-2.61-.54c-.81-.36-1.53-.85-2.16-1.48-.63-.63-1.13-1.35-1.48-2.16-.36-.81-.54-1.69-.54-2.66v-22.73h4.2v22.31c0,1.04,.25,1.81,.74,2.31s1.11,.74,1.85,.74,1.36-.25,1.85-.74,.74-1.26,.74-2.31v-22.31h4.2Z" fill="#1c4da1"/>
            <path d="M278.71,100.8v-29.31h4.03l6.34,17.66h.08v-17.66h4.2v29.31h-3.95l-6.42-17.62h-.08v17.62h-4.2Z" fill="#1c4da1"/>
            <path d="M299.13,100.8v-29.31h4.2v29.31h-4.2Z" fill="#1c4da1"/>
            <path d="M323.51,71.49l-6.01,29.31h-3.71l-5.97-29.31h4.45l3.33,20.46h.08l3.38-20.46h4.45Z" fill="#1c4da1"/>
            <path d="M327.87,100.8v-29.31h12.52v3.95h-8.32v8.6h7.25v3.95h-7.25v8.6h8.32v4.2h-12.52Z" fill="#1c4da1"/>
            <path d="M344.95,100.8v-29.31h6.75c4.94,0,7.41,2.87,7.41,8.6,0,1.73-.27,3.2-.8,4.41-.54,1.21-1.48,2.18-2.82,2.92l4.53,13.38h-4.45l-3.91-12.52h-2.51v12.52h-4.2Zm4.2-25.36v9.14h2.39c.74,0,1.33-.1,1.77-.31,.44-.21,.78-.5,1.03-.89,.22-.38,.37-.86,.45-1.42,.08-.56,.12-1.21,.12-1.96s-.04-1.39-.12-1.96c-.08-.56-.25-1.05-.49-1.46-.52-.77-1.51-1.15-2.96-1.15h-2.18Z" fill="#1c4da1"/>
            <path d="M377.93,79.93h-4.2v-.95c0-.96-.23-1.79-.68-2.49-.45-.7-1.21-1.05-2.28-1.05-.58,0-1.04,.11-1.4,.33-.36,.22-.65,.49-.86,.82-.22,.36-.37,.76-.45,1.21-.08,.45-.12,.93-.12,1.42,0,.58,.02,1.06,.06,1.44,.04,.38,.14,.73,.31,1.03,.16,.3,.4,.56,.72,.78,.32,.22,.75,.44,1.3,.66l3.21,1.28c.93,.36,1.69,.78,2.26,1.26,.58,.48,1.03,1.04,1.36,1.67,.3,.66,.51,1.41,.62,2.24,.11,.84,.16,1.79,.16,2.86,0,1.24-.12,2.38-.37,3.44-.25,1.06-.65,1.96-1.19,2.7-.58,.77-1.33,1.37-2.26,1.81-.93,.44-2.07,.66-3.42,.66-1.02,0-1.96-.18-2.84-.54-.88-.36-1.63-.85-2.26-1.48-.63-.63-1.13-1.37-1.5-2.2-.37-.84-.56-1.75-.56-2.74v-1.56h4.2v1.32c0,.77,.23,1.46,.68,2.08,.45,.62,1.21,.93,2.28,.93,.71,0,1.27-.1,1.67-.31,.4-.21,.71-.5,.93-.89,.22-.38,.35-.84,.39-1.38,.04-.54,.06-1.13,.06-1.79,0-.77-.03-1.4-.08-1.89-.06-.49-.16-.89-.33-1.19-.19-.3-.45-.55-.76-.74-.32-.19-.73-.4-1.26-.62l-3.01-1.24c-1.81-.74-3.03-1.72-3.64-2.94-.62-1.22-.93-2.75-.93-4.59,0-1.1,.15-2.14,.45-3.13,.3-.99,.75-1.84,1.36-2.55,.58-.71,1.31-1.28,2.2-1.71,.89-.43,1.96-.64,3.19-.64,1.04,0,2,.19,2.86,.58,.86,.38,1.61,.89,2.24,1.52,1.26,1.32,1.89,2.83,1.89,4.53v2.06Z" fill="#1c4da1"/>
            <path d="M383.04,100.8v-29.31h4.2v29.31h-4.2Z" fill="#1c4da1"/>
            <path d="M395.92,100.8v-25.36h-4.86v-3.95h13.92v3.95h-4.86v25.36h-4.2Z" fill="#1c4da1"/>
            <path d="M404.53,100.8l6.55-29.31h3.5l6.55,29.31h-4.2l-1.24-6.3h-5.72l-1.24,6.3h-4.2Zm10.37-10.25l-2.06-10.62h-.08l-2.06,10.62h4.2Z" fill="#1c4da1"/>
            <path d="M425.03,100.8v-29.31h6.75c4.94,0,7.41,2.87,7.41,8.6,0,1.73-.27,3.2-.8,4.41-.54,1.21-1.48,2.18-2.82,2.92l4.53,13.38h-4.45l-3.91-12.52h-2.51v12.52h-4.2Zm4.2-25.36v9.14h2.39c.74,0,1.33-.1,1.77-.31,.44-.21,.78-.5,1.03-.89,.22-.38,.37-.86,.45-1.42,.08-.56,.12-1.21,.12-1.96s-.04-1.39-.12-1.96c-.08-.56-.25-1.05-.49-1.46-.52-.77-1.51-1.15-2.96-1.15h-2.18Z" fill="#1c4da1"/>
            <path d="M444.54,100.8v-29.31h4.2v29.31h-4.2Z" fill="#1c4da1"/>
            <path d="M452.78,100.8l6.55-29.31h3.5l6.55,29.31h-4.2l-1.24-6.3h-5.72l-1.24,6.3h-4.2Zm10.37-10.25l-2.06-10.62h-.08l-2.06,10.62h4.2Z" fill="#1c4da1"/>
          </g>
        </g>
      </g>
    </g>
  </g>
</svg>