<?xml version="1.0" encoding="UTF-8"?>
<svg id="Capa_2" data-name="Capa 2" xmlns="http://www.w3.org/2000/svg" viewBox="0 0 1779.94 376.15">
  <defs>
    <style>
      .cls-1 {
        fill: #2072b9;
      }

      .cls-2 {
        fill: #2a3180;
      }

      .cls-3 {
        fill: #5db130;
      }

      .cls-4 {
        fill: #3ba9e0;
      }

      .cls-5 {
        fill: #e6007e;
      }

      .cls-6 {
        fill: #010101;
      }
    </style>
  </defs>
  <g id="Capa_1-2" data-name="Capa 1">
    <g>
      <path class="cls-5" d="m414.95,222.16c-1.9,9.47-6.83,18.93-15.38,23.42-8.55,4.49-20.94,2.05-25.03-6.69-1.73-3.7-1.86-8-3.6-11.69-1.74-3.7-6.36-6.72-9.83-4.57-2.6,1.61-3.08,5.13-3.3,8.19-1.03,14.72-2.06,29.44-3.1,44.17-16.97,34.02-10.62,68.76,9.5,82.96,14.52,10.25,36.38,9.92,49.96.82,26.22-17.58,29.07-72.91.79-136.59Z"/>
      <path class="cls-6" d="m773.83,217.61l-.81,8.67c-1.93,20.59-7.08,39.87-15.31,57.29-8.23,17.42-18.88,32.73-31.66,45.5-12.85,12.86-27.95,23.01-44.88,30.18-17,7.17-35.32,10.81-54.5,10.81-25.72,0-49.18-4.76-69.74-14.14-20.57-9.4-38.15-22.47-52.26-38.86-14.04-16.29-24.91-35.72-32.31-57.75-7.34-21.83-11.06-45.51-11.06-70.36s3.72-48.51,11.07-70.35c7.39-22.01,18.25-41.45,32.3-57.75,14.12-16.39,31.7-29.46,52.26-38.85,20.56-9.39,44.02-14.15,69.74-14.15,20.27,0,38.15,2.73,53.15,8.11,14.92,5.35,27.72,12.14,38.08,20.18,10.31,8.02,18.89,16.95,25.51,26.53,6.47,9.4,11.49,18.38,14.92,26.72,3.4,8.24,5.8,15.55,7.14,21.72,1.93,9,2.02,10.06,2.02,11.17v7.93h-35.09l-1.05-6.71c-1.98-12.76-6.14-24.31-12.34-34.33-6.25-10.06-14.15-18.77-23.51-25.86-9.42-7.13-20.08-12.64-31.67-16.37-11.66-3.74-24.16-5.63-37.16-5.63-20.29,0-38.58,3.93-54.38,11.68-15.89,7.81-29.51,18.42-40.47,31.54-11.04,13.21-19.58,28.91-25.4,46.69-5.89,17.94-8.87,37.35-8.87,57.72s2.98,39.8,8.87,57.73c5.82,17.79,14.37,33.5,25.4,46.69,10.95,13.12,24.56,23.73,40.47,31.53,15.81,7.76,34.1,11.7,54.38,11.7,14.8,0,28.84-3.09,41.76-9.2,13.11-6.2,24.7-14.51,34.47-24.71,9.8-10.23,17.78-22.23,23.71-35.68,5.92-13.44,9.35-27.56,10.22-41.95l.45-7.46h36.55Z"/>
      <rect class="cls-6" x="788.07" y="172.91" width="273.28" height="33.2"/>
      <polygon class="cls-6" points="1355.58 6.43 1355.58 368.63 1319.3 368.63 1120.37 65.68 1120.37 368.63 1084.13 368.63 1084.13 6.43 1121.81 6.43 1319.35 306.97 1319.35 6.43 1355.58 6.43"/>
      <path class="cls-6" d="m314.98,180.41v181.61h-33.47v-48.06c-1.55,2.23-3.17,4.4-4.88,6.51-8.56,10.6-18.81,19.64-30.47,26.86-11.51,7.14-24.5,12.78-38.6,16.76-14.06,3.97-28.88,5.98-44.06,5.98-26.07,0-49.57-4.88-69.85-14.5-20.25-9.61-37.58-22.9-51.52-39.47-13.88-16.51-24.51-36.13-31.58-58.33C3.55,235.78,0,211.95,0,186.92s3.64-48.54,10.8-70.85c7.21-22.45,17.88-42.51,31.71-59.62,13.92-17.22,31.24-31.07,51.48-41.17C114.3,5.14,137.85,0,163.98,0c17.72,0,34.9,2.68,51.08,7.97,16.27,5.32,31.06,13.27,43.95,23.6,12.87,10.34,23.85,22.99,32.62,37.63,8.82,14.7,14.78,31.59,17.71,50.19l1.44,9.16h-34.85l-1.55-5.93c-7.26-27.9-20.41-49.95-39.08-65.51-18.51-15.43-42.35-23.25-70.86-23.25-20.82,0-39.38,4.15-55.14,12.36-15.88,8.27-29.32,19.48-39.97,33.32-10.79,14.02-19.08,30.45-24.62,48.83-5.61,18.57-8.46,38.27-8.46,58.55s2.77,40.33,8.23,58.57c5.39,18.06,13.5,33.97,24.09,47.31,10.48,13.22,23.82,23.88,39.65,31.67,15.8,7.78,34.7,11.73,56.22,11.73,18.6,0,35.49-3.13,50.17-9.32,14.61-6.16,27.15-14.89,37.27-25.98,10.15-11.12,17.92-24.72,23.09-40.45,4-12.18,6.52-31.96,6.68-50.94h-142.61v-29.75h174.61v.63h1.32Z"/>
      <path class="cls-3" d="m819.85,99.78c-.87.52.17,1.49,1.05,1.02,36.79-19.65,85.55-11.1,125.74-23.92,24.55-7.84,46.7-20.1,66.8-34.06h.04c10.3-7.12,20.09-14.68,29.39-22.34-4.36,8.54-9.89,16.7-16.41,24.36-19.68,23.1-48.35,41.54-80.98,51.95-25.07,8.01-50.58,9.89-77.45,9.34-22.1-.47-48.15-2.01-68.81,5.89-1.08.4-2.15.83-3.21,1.31,8.94-15.93,18.82-31.1,32.93-44.76,15.64-15.12,34.89-27.98,56.5-37.54,47.5-21.05,100.92-23.41,152.67-13.26-10.91,8.14-21.75,16.45-33,24.31-20.23,14.09-41.85,26.67-67.8,34.22-38.01,11.06-83.67,3.63-117.45,23.47"/>
      <path class="cls-3" d="m821.09,278.76c-.85-.51.22-1.5,1.08-1.05,36.11,18.92,85.01,9.28,124.71,21.26,24.25,7.33,45.98,19.15,65.61,32.71h.04c10.06,6.92,19.6,14.29,28.64,21.77-4.09-8.47-9.36-16.54-15.64-24.08-18.93-22.75-46.98-40.62-79.22-50.36-24.77-7.49-50.16-8.83-76.98-7.69-22.06.95-48.09,3.06-68.47-4.42-1.06-.38-2.12-.79-3.16-1.25,8.44,15.79,17.84,30.79,31.5,44.18,15.14,14.82,33.96,27.31,55.23,36.43,46.75,20.09,99.96,21.3,151.9,9.98-10.64-7.93-21.2-16.03-32.18-23.66-19.75-13.69-40.94-25.84-66.61-32.85-37.59-10.27-83.36-1.83-116.45-20.99"/>
      <g>
        <rect class="cls-4" x="1303.61" y="164.53" width="398.71" height="29.75" transform="translate(561.53 1364.64) rotate(-58.35)"/>
        <path class="cls-4" d="m1400.23,346.04c-3.04-12.83-16.41-26.29-27.11-33.32,7.91,19.9,11.95,41.9,8.55,63.42,17.4-12.89,39.25-18.07,60.5-20.85-12.24-6.25-28.15-12.13-41.94-9.25Z"/>
      </g>
      <g>
        <rect class="cls-2" x="1633.21" y="-20.42" width="29.75" height="398.71" transform="translate(154.47 898.17) rotate(-31.91)"/>
        <path class="cls-2" d="m1751.56,345.11c-12.84-2.99-30.85,2.99-41.9,9.44,21.34,1.77,42.84,7.96,60.6,20.58-3.8-21.32,1.29-43.2,8.27-63.46-11.05,8.17-23.4,19.8-26.96,33.44Z"/>
      </g>
      <g>
        <rect class="cls-1" x="1389.56" y="183.05" width="358.64" height="29.75" transform="translate(-3.25 27.76) rotate(-1.01)"/>
        <path class="cls-1" d="m1744.58,194.82c-9.16,9.49-13.28,28-13.42,40.8,12.48-17.4,28.83-32.67,48.78-41.43-20.24-7.69-36.4-23.29-50.21-39.68,1.34,13.68,4.98,30.24,14.85,40.3Z"/>
      </g>
    </g>
  </g>
</svg>