<?xml version="1.0" encoding="UTF-8"?>
<svg id="Capa_2" data-name="Capa 2" xmlns="http://www.w3.org/2000/svg" viewBox="0 0 2048.28 348.48">
  <defs>
    <style>
      .cls-1 {
        fill: #efc304;
      }

      .cls-2 {
        fill: #009fe3;
      }

      .cls-3 {
        fill: #e50c7e;
      }

      .cls-4 {
        fill: #ffed00;
      }

      .cls-5 {
        fill: #1d1d1b;
      }

      .cls-6 {
        fill: #feeb1a;
      }
    </style>
  </defs>
  <g id="Capa_1-2" data-name="Capa 1">
    <g>
      <path class="cls-5" d="m218.02,1.19h71.78l-112.72,346.09h-65.27L0,1.19h73.8l71.78,262.74L218.02,1.19Z"/>
      <path class="cls-5" d="m813.7,10.12c12.18,5.48,22.49,13.54,30.95,24.18,7,8.77,12.54,18.47,16.62,29.11,4.08,10.65,6.12,22.78,6.12,36.39,0,16.44-3.96,32.6-11.89,48.49-7.92,15.89-21.01,27.12-39.25,33.69,15.25,6.42,26.05,15.54,32.41,27.35,6.35,11.82,9.53,29.86,9.53,54.12v23.24c0,15.81.61,26.53,1.82,32.17,1.82,8.92,6.08,15.5,12.76,19.72v8.69h-76.26c-2.1-7.67-3.59-13.85-4.49-18.55-1.79-9.7-2.77-19.64-2.92-29.82l-.45-32.17c-.28-22.07-3.92-36.78-10.93-44.14-7-7.36-20.12-11.04-39.35-11.04h-67.47v135.71h-67.51V1.19h158.14c22.6.47,39.99,3.44,52.16,8.92Zm-142.79,51.19v92.98h74.35c14.77,0,25.84-1.88,33.23-5.64,13.06-6.57,19.59-19.57,19.59-38.98,0-20.97-6.32-35.06-18.96-42.26-7.1-4.07-17.75-6.1-31.95-6.1h-76.27Z"/>
      <path class="cls-5" d="m1173.78,1.19v61.28h-98.91v284.81h-69.54V62.48h-99.36V1.19h267.81Z"/>
      <path class="cls-5" d="m1475.67,42.02c26.63-27.21,60.51-40.82,101.63-40.82,55.03,0,95.27,18.24,120.72,54.73,14.05,20.49,21.6,41.05,22.63,61.68h-69.08c-4.39-15.85-10.04-27.81-16.92-35.89-12.31-14.36-30.54-21.53-54.71-21.53s-44.03,10.13-58.24,30.39c-14.2,20.26-21.31,48.93-21.31,86.02s7.5,64.86,22.49,83.33c14.99,18.47,34.04,27.7,57.15,27.7s41.76-7.92,54.2-23.78c6.87-8.52,12.58-21.31,17.11-38.35h68.64c-5.92,36.04-21.05,65.35-45.38,87.92-24.33,22.58-55.51,33.87-93.53,33.87-47.04,0-84.03-15.25-110.95-45.76-26.92-30.65-40.39-72.67-40.39-126.06,0-57.72,15.32-102.2,45.94-133.46Z"/>
      <g>
        <path class="cls-4" d="m2021.6,285.06v62.22h-250.54V1.19h242.47v61.28h-174.96v93.37l71.81-20.43c1.02-8.88,6.51-15.65,13.12-15.65,7.34,0,13.29,8.35,13.29,18.65,0,1.55-.13,3.05-.39,4.48.23,1.01.35,2.06.35,3.14v11.3l17.07,6.24v24.99l-17.07,6.24v7.66c0,.89-.08,1.77-.24,2.61.18,1.24.28,2.52.28,3.84,0,10.29-5.95,18.64-13.29,18.64-6.31,0-11.59-6.16-12.94-14.42l-71.99-20.56v92.5h183.03Z"/>
        <path class="cls-1" d="m2022.8,348.48h-252.93V0h244.85v63.66h-174.95v90.59l69.53-19.78c1.35-9.27,7.23-15.91,14.2-15.91,7.99,0,14.49,8.9,14.49,19.84,0,1.53-.12,3.03-.37,4.45.22,1.03.33,2.09.33,3.17v10.46l17.07,6.24v26.66l-17.07,6.24v6.83c0,.9-.08,1.78-.23,2.63.18,1.27.27,2.55.27,3.81,0,10.93-6.5,19.83-14.49,19.83-6.63,0-12.31-5.99-13.99-14.67l-69.75-19.92v89.73h183.03v64.61Zm-250.54-2.39h248.15v-59.83h-183.03v-95.28l74.24,21.2.12.75c1.27,7.78,6.22,13.42,11.76,13.42,6.67,0,12.1-7.82,12.1-17.44,0-1.21-.09-2.44-.27-3.66l-.03-.2.04-.2c.15-.76.22-1.57.22-2.38v-8.5l17.07-6.24v-23.32l-17.07-6.24v-12.13c0-.98-.11-1.95-.32-2.88l-.05-.24.04-.24c.25-1.35.37-2.79.37-4.26,0-9.62-5.43-17.45-12.1-17.45-5.85,0-10.98,6.27-11.94,14.59l-.09.79-74.1,21.08V61.28h174.95V2.39h-240.08v343.7Z"/>
      </g>
      <path class="cls-2" d="m361.65,200.44c10.39,56.94,58.88,103.77,117.73,113.63,2.3.39,3.12-.42,4.1-2.16,5.08-9.21,14.78-14.24,24.64-12.98,10.67,1.35,19.5,8.9,21.91,18.71,2.95,11.88-4.58,24.66-16.77,28.51-12.08,3.82-26.12-2.25-30.65-13.79-1.52-3.9-3.6-5.31-7.67-6.15-53.85-11.18-92-41.49-116.1-89.92,0,24.07.03,47.56-.06,71.07,0,2.67,1.12,3.31,3.68,3.34,7.42.08,8.65,1.38,8.65,8.48s.03,13.85,0,20.76c-.06,4.86-1.99,6.8-6.94,6.83-7.92.06-15.87.06-23.79,0-4.52-.06-6.57-2.02-6.6-6.38-.08-7.78-.08-15.59,0-23.37.03-4.35,2.11-6.35,6.63-6.35,6.07.03,5.62.11,5.62-5.48,0-34.38-.03-68.77.06-103.15,0-2.67-.67-4.16-3.43-5.31-9.35-3.99-14.49-11.01-15.06-21.01-.62-10.87,5.14-18.09,14.61-22.78,3.03-1.49,3.88-3.09,3.88-6.18-.08-34.64-.06-69.27-.06-103.91,0-4.72-.03-4.72-5.11-4.8-5.22-.11-7.13-1.94-7.16-6.99-.03-7.44-.03-14.86,0-22.28.03-5,1.99-6.85,7.28-6.88,7.67-.03,15.34-.03,23.03.03,5,.03,6.99,1.91,7.02,6.71.06,7.53.06,15.09,0,22.61-.03,4.83-1.99,6.69-6.97,6.77q-5.28.14-5.28,5.06v69.75c4.1-8.43,8.01-15.82,12.75-22.73,25.59-37.08,61.1-59.72,106.32-68.09,2.42-.45,3.74-1.29,4.58-3.65,3.88-11.04,14.21-18.01,25-17.08,12.39,1.07,21.69,9.38,23.74,21.21,1.74,10.06-5.17,21.41-15.59,25.68-10.48,4.27-22.67.73-29.58-8.57-4.07-5.48-4.1-5.62-10.93-3.96-59.97,14.49-97.59,50.73-112.79,108.71-.11.37-.2.73-.34,1.07-1.21,3.79-.53,6.1,3.6,8.48,5.45,3.12,9.02,7.73,10.7,12.78l136.47.7c1.97-6.66,6.8-11.01,12.98-11.07,8.29-.08,14.33,7.3,14.38,17.64.06,10.48-5.82,18.15-13.96,18.23-6.18.06-11.1-4.07-13.23-10.48l-136.52-.7c-1.8,5.65-5.84,10.79-11.99,14.02-2.53,1.32-3.31,2.5-2.78,5.42Z"/>
      <g>
        <path class="cls-3" d="m1233.1,123.92c0-18.05-.01-36.1,0-54.15.03-35.45,24.05-64.17,58.26-68.14,35.97-4.17,64.99,21.75,71.05,54.01.93,4.94,1.34,9.92,1.33,14.97-.04,36.21.31,72.43-.13,108.64-.34,28.24-13.18,49.21-37.84,61.54-37.89,18.94-83.87-5.66-91.43-48.43-.82-4.61-1.28-9.24-1.27-13.95.05-18.16.02-36.33.02-54.49Zm65.4,6.07c-16.61,0-33.22.07-49.83-.07-3.08-.03-3.97.93-3.94,4.08.14,15.65.02,31.3.11,46.94.02,2.95.32,5.94.87,8.83,5.56,29.59,31.61,48.78,60.54,44.7,25.51-3.6,45.65-27.18,45.77-53.69.07-15.65-.05-31.3.07-46.94.02-2.98-.81-3.94-3.75-3.92-16.61.13-33.22.06-49.83.06Zm-.2-11.99c16.61,0,33.21-.06,49.82.06,3.02.02,4.01-.9,3.98-4.08-.15-15.19.14-30.38-.12-45.56-.31-18.11-7.56-32.81-21.51-43.9-1.2-.95-2.57-2.76-3.9-2.18-1.55.67-.62,2.87-.67,4.38-.33,10.02,2.02,8.57-9.12,8.67-1.82.02-2.61-.83-2.6-2.68.03-3.54.04-7.08-.02-10.62-.11-6.73,1.24-6.07-6.27-7.7-2.43-.53-3.55.14-3.5,2.84.08,5.02.06,10.05,0,15.07-.1,10.12,1.16,8.36-8.54,8.64-2.7.08-3.47-1.14-3.43-3.66.08-5.82.02-11.65.02-17.47,0-6.13.02-6.01-5.92-4.97-2.97.52-4.08,1.89-3.9,5.03.24,4.21.05,8.45.04,12.67,0,1.48-.27,2.57-2.08,2.87-8.45,1.39-9.6.45-9.61-8.14,0-.69.06-1.38-.01-2.05-.1-.98.49-2.29-.51-2.85-.99-.55-1.81.54-2.59,1.1-14.69,10.64-22.43,25.34-22.95,43.73-.44,15.4-.1,30.83-.09,46.24,0,4.58.01,4.59,4.35,4.6,16.39,0,32.77,0,49.16,0Z"/>
        <path class="cls-3" d="m1298.3,347.28c-18.38,0-36.77,0-55.15,0-4.72,0-4.73-.03-4.7-5,.12-20.16,12.82-36.1,31.93-39.65,5.88-1.09,11.92-.97,17.89-.72,3.18.13,4.37-1.04,4.21-4.34-.2-4.22-.04-8.45-.05-12.68,0-4.82,0-4.92-4.73-5.39-10.35-1.01-20.29-3.7-29.64-8.29-31.84-15.62-50.81-41.38-56.21-77.38-2.5-16.66-.86-33.51-1.22-50.27-.05-2.12.8-3.1,2.96-3.08,7.42.07,14.84.07,22.26,0,2.18-.02,3.01,1.02,2.91,3.12,0,.11,0,.23,0,.34-.04,10.07.88,8.5-7.93,8.58-8.58.08-8.59.02-8.58,8.79.02,13.23-.39,26.47,2.62,39.51,7.92,34.3,36.62,61.22,70.4,66.67,45.93,7.4,89.73-24.88,97.85-72.48,2.26-13.22,1.35-26.64,1.47-39.98.02-2.03-1.02-2.51-2.72-2.49-3.54.04-7.09-.06-10.63.02-2.26.05-3.2-.91-3.18-3.25.07-10.63-.88-8.65,8.03-8.8,5.65-.1,11.3.05,16.94-.04,2.26-.04,3.22.87,3.19,3.21-.21,15.52.85,31.09-.7,46.56-2.08,20.78-9.85,39.23-23.17,55.03-15.88,18.85-35.94,29.99-59.8,33.93q-8.15,1.35-8.15,10.04c0,2.86.16,5.72-.04,8.56-.22,3.23,1.15,4.16,4.1,4.1,6.63-.13,13.31-.36,19.85,1.08,18.41,4.05,30.92,21.1,30.08,41.57-.12,3.02-2.05,2.72-3.94,2.72-18.71,0-37.43,0-56.14,0Zm-.24-12.02c14.83,0,29.66-.04,44.5.04,2.52.01,3.4-.44,2.4-3.27-3.56-10.14-13.01-17.61-23.44-17.73-15.27-.18-30.55-.25-45.82,0-11.24.18-18.8,6.47-23.4,16.74-1.73,3.86-1.42,4.21,2.6,4.22,14.39,0,28.78,0,43.17,0Z"/>
      </g>
      <path class="cls-6" d="m1972.63,216.05c-2.16,0-4.25-1.18-5.31-3.24-1.51-2.93-.36-6.53,2.58-8.04,1.49-.76,14.52-7.81,14.89-19.7.36-11.74-11.93-19.66-13.34-20.53-2.81-1.73-3.68-5.41-1.95-8.21,1.73-2.81,5.41-3.68,8.21-1.95,3.27,2.02,19.57,12.99,19.01,31.06-.57,18.33-17.89,28.16-21.36,29.95-.87.45-1.81.66-2.73.66Z"/>
      <path class="cls-6" d="m1992.85,227.94c-1.9,0-3.77-.91-4.93-2.6-1.86-2.72-1.17-6.43,1.55-8.3,5.62-3.85,18.81-14.59,19.79-31,1.06-17.61-12.97-30.34-17.3-33.82-2.57-2.07-2.97-5.83-.91-8.39,2.07-2.57,5.82-2.97,8.39-.9,6.99,5.63,23.09,21.16,21.73,43.83-1.3,21.68-17.89,35.29-24.96,40.14-1.03.71-2.21,1.05-3.37,1.05Z"/>
      <path class="cls-6" d="m2017.6,238.44c-1.72,0-3.43-.74-4.61-2.17-2.1-2.54-1.73-6.31.81-8.4,7.02-5.79,23.27-21.66,22.51-44.01-.74-21.91-17.44-36.67-24.59-42-2.64-1.97-3.19-5.71-1.22-8.35,1.97-2.64,5.71-3.19,8.35-1.22,8.53,6.36,28.47,24.08,29.38,51.17.94,27.66-18.47,46.72-26.85,53.63-1.11.92-2.46,1.36-3.79,1.36Z"/>
    </g>
  </g>
</svg>