<?xml version="1.0" encoding="UTF-8"?>
<svg id="Capa_2" data-name="Capa 2" xmlns="http://www.w3.org/2000/svg" viewBox="0 0 73.43 42.77">
  <defs>
    <style>
      .cls-1 {
        fill: #642781;
      }

      .cls-2 {
        fill: #db0d15;
      }

      .cls-3 {
        fill: #a41b5c;
      }

      .cls-4 {
        fill: none;
      }
    </style>
  </defs>
  <g id="Capa_1-2" data-name="Capa 1">
    <g>
      <path class="cls-3" d="m26.65,39.05c1.06,1.16,2.35,2.07,3.89,2.73,1.54.66,3.27.99,5.19.99,1.55,0,2.97-.23,4.26-.69,1.29-.46,2.42-1.13,3.38-2.01.96-.88,1.74-1.94,2.32-3.19.59-1.25.95-2.65,1.09-4.2h-5.35c-.21,1.67-.79,3.01-1.74,4.03-.95,1.02-2.27,1.53-3.96,1.53-1.24,0-2.3-.24-3.17-.71-.87-.47-1.57-1.1-2.11-1.89-.54-.79-.93-1.67-1.18-2.66-.25-.98-.37-2-.37-3.04s.12-2.14.37-3.16c.25-1.02.64-1.93,1.18-2.73.54-.8,1.24-1.43,2.11-1.91.87-.47,1.92-.71,3.17-.71.68,0,1.33.11,1.95.33.62.22,1.18.53,1.67.92.49.39.9.85,1.23,1.37.33.52.54,1.09.63,1.72h5.35c-.16-1.43-.56-2.71-1.2-3.82-.63-1.11-1.44-2.04-2.41-2.79-.97-.75-2.08-1.32-3.31-1.72-1.23-.39-2.54-.59-3.92-.59-1.92,0-3.65.34-5.19,1.01-1.54.67-2.83,1.6-3.89,2.78-1.06,1.18-1.86,2.56-2.43,4.15-.56,1.59-.84,3.3-.84,5.16s.28,3.49.84,5.05c.56,1.56,1.37,2.92,2.43,4.08Z"/>
      <g>
        <polygon class="cls-4" points="64.56 15.26 64.54 15.26 64.56 15.26 64.56 15.26"/>
        <polygon class="cls-4" points="53.26 17.77 53.28 17.75 53.26 17.76 53.26 17.77"/>
        <path class="cls-4" d="m64.55,15.08l-.02-.07-.02-.09-.14-.65c-.15-.67-.3-1.37-.45-2.05,0-.01,0-.02,0-.02,0,0,0,0,0,0,.03-.02.07-.05.11-.08.02-.01.05-.03.07-.04.68-.45,1.18-1.07,1.41-1.75.24-.7.19-1.42-.16-2.03-.61-1.08-1.69-1.62-3.21-1.62-.06,0-.12,0-.18,0-.23,0-.46.04-.67.08-.1.02-.19.03-.28.04-.13.02-.23.11-.26.24v.02s-.01.02-.01.02c-.03.11,0,.22.08.3.01.01.02.02.03.03.03.03.06.06.09.09.38.37.63.79.77,1.3,0,.01,0,.02,0,.02,0,0-.03.03-.09.04-.01,0-.02,0-.03,0-.02,0-.03,0-.05-.05-.01-.04-.03-.08-.04-.11-.06-.19-.13-.38-.23-.56-.63-1.09-1.91-1.74-3.42-1.74-.62,0-1.23.11-1.83.32-1.86.67-3.05,2.35-2.75,3.9,0,.03,0,.06,0,.08-.02.01-.05.03-.11.03h0s-.02,0-.03,0c0-.02,0-.05,0-.07-.03-.21-.05-.4-.03-.59.03-.24.08-.48.14-.74.02-.11.05-.23.07-.34.02-.1,0-.2-.08-.28-.06-.06-.14-.1-.23-.1-.01,0-.03,0-.04,0h-.01s-.07,0-.11.02c-1.17.22-2.21.91-2.79,1.83-.41.66-.55,1.39-.37,2.05.16.61.49,1.11.96,1.48.46.36,1.07.6,1.81.71.14.02.15.04.16.09.14.66.28,1.32.42,1.96.05.24.1.47.15.71,0,.04.02.07.02.11v.05c.02.06.06.12.1.16l11.26-2.49c.02-.06.03-.12.01-.18Z"/>
        <path class="cls-4" d="m63.98,18.44c.05-.01.11-.03.17-.05.25-.09.38-.36.33-.69-.06-.4-.15-.8-.24-1.19-.04-.17-.08-.34-.11-.51,0-.02,0-.03-.01-.05l-10.18,2.25c.02.1.05.21.07.31.1.47.2.92.31,1.37.06.27.21.45.39.51.12.04.27.04.41.01,2.6-.57,5.25-1.15,7.81-1.72l1.06-.24Z"/>
        <path class="cls-2" d="m63.13,29.46v3.87h5.42c-.16,1.66-.73,2.92-1.7,3.79-.97.87-2.35,1.31-4.13,1.31-1.21,0-2.24-.23-3.09-.68-.85-.45-1.53-1.05-2.06-1.8-.53-.75-.91-1.59-1.15-2.53-.24-.94-.36-1.9-.36-2.9s.12-2.04.36-3.01c.24-.97.62-1.84,1.15-2.6.53-.76,1.21-1.37,2.06-1.82.85-.45,1.88-.68,3.09-.68,1.3,0,2.41.33,3.33.99.91.66,1.53,1.66,1.85,2.98h5.15c-.14-1.35-.51-2.54-1.13-3.58-.62-1.04-1.4-1.91-2.35-2.62-.95-.71-2.01-1.24-3.19-1.61-.45-.14-.91-.25-1.38-.34.07-.19.09-.41.05-.64-.07-.41-.16-.83-.25-1.23-.04-.17-.07-.34-.11-.51,0,0,0-.02,0-.03.28-.18.44-.53.36-.87l-.02-.07-.02-.09-.14-.65c-.13-.57-.25-1.15-.38-1.74.72-.51,1.25-1.19,1.51-1.94.29-.84.22-1.71-.2-2.45-.88-1.55-2.47-1.88-3.65-1.88-.06,0-.13,0-.19,0-.27,0-.52.05-.74.09-.09.02-.18.03-.27.04-.21.03-.39.13-.52.28-.72-.45-1.61-.69-2.59-.69-.68,0-1.35.12-2.01.35-.98.35-1.84.98-2.41,1.77-.04.05-.08.11-.11.16-.11-.05-.23-.08-.35-.08-.03,0-.07,0-.1,0h0s-.09,0-.15.02c-1.3.25-2.47,1.02-3.12,2.06-.49.78-.64,1.65-.43,2.45.25.95.98,2.15,2.98,2.52.12.57.25,1.14.37,1.7.05.24.1.47.15.71,0,.04.02.07.02.11v.05c.09.35.37.59.7.64.02.09.04.19.06.28.1.48.2.92.31,1.38.11.47.4.8.77.92.02,0,.04,0,.05.01-.25.23-.49.46-.72.71-1.03,1.13-1.82,2.44-2.37,3.96-.55,1.51-.82,3.15-.82,4.92s.27,3.33.82,4.82c.55,1.49,1.34,2.79,2.37,3.89,1.03,1.1,2.29,1.97,3.79,2.6,1.5.63,3.19.94,5.06.94,1.19,0,2.37-.24,3.53-.71,1.17-.47,2.23-1.31,3.19-2.5l.55,2.68h3.43v-12.78h-10.29Zm-9.85-11.71l-.02.02h0s.02-.02.02-.02c-.04-.04-.08-.1-.09-.16v-.05s-.03-.07-.03-.11c-.05-.24-.1-.47-.15-.71-.14-.64-.29-1.31-.42-1.96,0-.05-.01-.07-.16-.09-.74-.11-1.35-.35-1.81-.71-.48-.37-.8-.87-.96-1.48-.18-.66-.04-1.39.37-2.05.58-.92,1.62-1.6,2.79-1.83.04,0,.09-.01.11-.02h.01s.03,0,.04,0c.09,0,.17.04.23.1.07.07.1.18.08.28-.02.12-.05.23-.07.34-.06.26-.11.5-.14.74-.02.18,0,.38.03.59,0,.02,0,.05,0,.07,0,0,.02,0,.03,0h0c.06,0,.1-.02.11-.03,0-.02,0-.05,0-.08-.3-1.55.89-3.23,2.75-3.9.6-.22,1.22-.32,1.83-.32,1.51,0,2.79.65,3.42,1.74.11.19.17.38.23.56.01.04.03.08.04.11.02.05.03.05.05.05,0,0,.02,0,.03,0,.06,0,.09-.03.09-.04,0,0,0-.01,0-.02-.13-.51-.38-.93-.77-1.3-.03-.03-.06-.06-.09-.09-.01-.01-.02-.02-.03-.03-.08-.08-.11-.19-.08-.3v-.02s.01-.02.01-.02c.03-.13.14-.22.26-.24.09-.01.18-.03.28-.04.22-.04.44-.08.67-.08.06,0,.12,0,.18,0,1.51,0,2.59.55,3.21,1.62.35.61.4,1.33.16,2.03-.23.68-.74,1.3-1.41,1.75-.02.01-.04.03-.07.04-.04.03-.08.05-.11.08,0,0,0,0,0,0,0,0,0,.01,0,.02.15.68.31,1.38.45,2.05l.14.65.02.09.02.07c.01.06,0,.13-.01.18h.02s-.02,0-.02,0l-11.26,2.49Zm1.42,2.63c-.18-.06-.33-.24-.39-.51-.11-.45-.21-.9-.31-1.37-.02-.1-.04-.21-.07-.31l10.18-2.25s0,.03.01.05c.04.17.07.34.11.51.09.39.18.8.24,1.19.05.33-.07.6-.33.69-.06.02-.12.04-.17.05l-1.06.24c-2.56.57-5.2,1.15-7.81,1.72-.13.03-.28.02-.41-.01Z"/>
      </g>
      <path class="cls-1" d="m1.95,16.66c.3.17.44.33.39.67-.03.19-.01.39-.02.59-.11,3.85-.21,7.7-.32,11.55-.07,2.41-.15,4.82-.22,7.24-.04,1.34-.1,2.68-.1,4.02,0,1.14.87,2.03,1.95,2.05,1.15.03,2.04-.79,2.12-1.97.02-.32,0-.64-.01-.96-.07-2.58-.15-5.16-.22-7.74-.02-.59-.03-1.18-.05-1.77h12.5c-.04.69-.08,1.38-.11,2.07-.17,3.06-.34,6.12-.49,9.18-.04.7.85,1.19,2.06,1.18,1.23-.01,2.08-.5,2.04-1.2-.24-4.29-.49-8.58-.73-12.87-.13-2.37-.25-4.74-.37-7.1,0-6.62,0-13.23,0-19.85,0-.77-.81-1.26-2.07-1.28-1.94-.03-3.79.8-3.96,1.79-.03.19-.05.37-.05.56,0,5.78,0,11.56,0,17.34,0,1.32.75,1.87,3.22,2.32.7.13.88.37.87.7-.04.74-.08,1.49-.12,2.23H5.32c0-.34-.02-.67-.03-1.01-.07-2.4-.13-4.8-.19-7.2,0-.15.08-.37.2-.43,1.48-.77,2.13-2.02,2.13-3.65,0-4.09,0-8.18,0-12.26C7.43.3,7.26.01,6.92,0c-.36-.01-.54.28-.54.88,0,3,0,6,0,9v.49h-1.1v-.51c0-2.99,0-5.97,0-8.96,0-.14,0-.28,0-.42-.02-.3-.21-.46-.49-.47-.28,0-.46.17-.51.46-.02.12,0,.25,0,.38,0,3.01,0,6.03,0,9.04v.48h-1.1v-.51c0-3.04,0-6.08,0-9.13C3.17.27,2.98,0,2.66,0c-.32,0-.51.25-.52.72,0,.11,0,.22,0,.34v9.32h-1.09v-.54c0-3.03,0-6.05,0-9.08C1.05.27.85,0,.52,0,.21,0,0,.27,0,.69c0,4.23-.02,8.46,0,12.68,0,1.44.65,2.58,1.94,3.29Zm1.18,8.75h0c0,.08,0,.15,0,.23v-.23Z"/>
    </g>
  </g>
</svg>