<?xml version="1.0" encoding="UTF-8"?>
<svg id="Capa_2" data-name="Capa 2" xmlns="http://www.w3.org/2000/svg" viewBox="0 0 1250 858.96">
  <defs>
    <style>
      .cls-1 {
        fill: #fff;
      }

      .cls-2 {
        fill: none;
      }

      .cls-3 {
        fill: #0553a0;
      }
    </style>
  </defs>
  <g id="Capa_1-2" data-name="Capa 1">
    <g>
      <path class="cls-2" d="m325.1,152.59h-160.88v558.91h163.13c136.29,0,182.1-146.27,182.1-286.59,0-252.11-112.84-272.32-184.34-272.32Z"/>
      <path d="m354.14,5.13H0v853.83h347.45c264.77,0,332.91-264.01,332.91-447.14,0-161.72-55.86-406.7-326.22-406.7Zm-26.8,706.37h-163.13V152.59h160.88c71.5,0,184.34,20.21,184.34,272.32,0,140.32-45.8,286.59-182.1,286.59Z"/>
      <polygon points="808.94 287.64 808.94 273.95 808.94 200.63 808.94 189.69 808.94 14.21 726.01 14.21 726.01 460.37 808.94 460.37 808.94 287.64"/>
      <polygon points="938.87 736.92 937.91 736.92 801.58 497.75 726.01 497.75 726.01 841.21 792.97 841.21 792.97 596.29 793.93 596.29 934.09 841.21 1005.84 841.21 1005.84 497.75 938.87 497.75 938.87 736.92"/>
      <polygon points="1093.7 795.36 1093.7 794.05 1192.69 662.5 1103.25 545.28 1103.25 543.98 1243.05 543.98 1243.05 498.39 1031.18 498.39 1031.18 535.73 1132.34 671.62 1027.27 810.56 1027.27 845.28 1250 845.28 1250 795.36 1093.7 795.36"/>
      <rect x="861.28" y="408.69" width="374.96" height="51.68"/>
      <path class="cls-3" d="m1235.35,154.52v64.14c-2.68,6.07-7.28,8.4-13.91,8.1-8.36-.38-16.76-.03-25.14-.14-2.04-.03-2.8.65-3.57,2.59-3.81,9.67-7.8,19.27-11.96,28.79-.89,2.05-.73,3.16.82,4.67,6.35,6.19,12.61,12.47,18.83,18.79,5.69,5.78,5.7,11.75-.03,17.52-13.01,13.1-26.07,26.15-39.16,39.17-5.9,5.86-11.82,5.81-17.78-.08-6.22-6.15-12.44-12.3-18.52-18.58-1.66-1.71-2.87-1.67-4.98-.75-9.3,4.07-18.67,7.98-28.14,11.64-2.38.92-3.07,1.95-3.03,4.38.15,8.86.08,17.73.05,26.6-.02,7.4-4.37,11.8-11.72,11.81-18.95.02-37.9.03-56.84,0-7.12-.01-11.56-4.46-11.59-11.57-.03-9.11-.08-18.22.04-27.33.03-2.23-.78-2.99-2.81-3.78-9.56-3.75-19.05-7.68-28.46-11.82-2.2-.97-3.37-.72-4.96.92-6.01,6.19-12.14,12.25-18.26,18.32-6.22,6.16-12.05,6.14-18.3-.1-12.82-12.78-25.61-25.57-38.39-38.39-6.24-6.26-6.26-12.09-.1-18.3,5.99-6.04,11.96-12.09,18.07-18.01,1.81-1.76,2.15-3.01,1.01-5.54-4.11-9.14-7.87-18.45-11.52-27.79-.87-2.23-1.69-3.23-4.28-3.17-9.11.19-18.22.11-27.33.06-6.65-.04-11.19-4.56-11.2-11.21-.04-19.19-.04-38.38,0-57.57.01-6.87,4.53-11.32,11.44-11.35,9.11-.04,18.22-.06,27.33.03,2.09.02,3.04-.51,3.88-2.67,3.77-9.68,7.77-19.28,11.96-28.79.94-2.13.53-3.2-.94-4.65-6.16-6.03-12.24-12.15-18.32-18.27-6.22-6.27-6.27-12.1-.09-18.3,12.86-12.91,25.74-25.79,38.65-38.65,6.08-6.05,11.96-6.05,18.04-.04,6.22,6.15,12.42,12.31,18.53,18.58,1.5,1.54,2.62,1.72,4.67.82,9.52-4.16,19.12-8.15,28.79-11.96,1.93-.76,2.62-1.52,2.59-3.56-.11-8.38.24-16.77-.14-25.14-.3-6.63,2.04-11.23,8.1-13.91h64.14c6.06,2.68,8.41,7.27,8.1,13.9-.38,8.24-.02,16.5-.14,24.75-.03,2.28.63,3.22,2.89,4.1,9.57,3.71,19.03,7.69,28.44,11.79,1.99.87,3.14.86,4.68-.73,6.09-6.27,12.3-12.41,18.51-18.57,6.11-6.05,11.99-6.11,18.03-.11,12.99,12.93,25.95,25.88,38.87,38.87,6.01,6.04,5.95,11.92-.11,18.03-6.15,6.21-12.3,12.42-18.57,18.51-1.59,1.55-1.6,2.69-.73,4.68,4.1,9.41,8.08,18.87,11.79,28.44.88,2.26,1.82,2.92,4.1,2.89,8.25-.12,16.52.24,24.75-.14,6.62-.3,11.22,2.04,13.9,8.1Z"/>
      <path class="cls-1" d="m1135.19,250.46c-7.3-1.29-14.28,3.62-15.58,10.98-.11.61-.16,1.22-.18,1.83l-20.12,1.6c-.94-4.29-4.35-7.8-8.92-8.61-3.5-.62-6.91.49-9.38,2.71l-60.11-50.83c1.46-2.09,2.52-4.52,2.99-7.21,1.03-5.83-.85-11.49-4.57-15.5l21.5-24.22c1.85,1.79,4.23,3.06,6.94,3.54,7.3,1.29,14.28-3.62,15.58-10.98,1.3-7.36-3.56-14.37-10.86-15.67-4.63-.82-9.13.86-12.13,4.08l-40.02-14.33c.15-.57.3-1.16.4-1.75,1.95-10.98-5.31-21.46-16.21-23.39-10.9-1.93-21.31,5.4-23.26,16.39-1.95,10.98,5.31,21.46,16.21,23.39,2.9.51,5.75.36,8.43-.33l13.13,39.12c-5.29,2.36-9.36,7.23-10.45,13.4-1.74,9.83,4.75,19.2,14.5,20.93,5.99,1.06,11.8-1.01,15.81-5.04l60.1,50.82c-.73,1.18-1.27,2.52-1.53,3.98-1.08,6.1,2.95,11.92,9,12.99,6.05,1.07,11.84-3,12.92-9.1.07-.42.12-.83.15-1.25l20.12-1.6c1.03,5.32,5.19,9.7,10.81,10.7,7.3,1.29,14.28-3.62,15.58-10.98,1.3-7.36-3.56-14.37-10.86-15.67Zm-146.31-109.32c4.56-1.98,8.3-5.63,10.39-10.32l39.16,14.02c-.72,1.29-1.25,2.71-1.52,4.25-.62,3.48.16,6.88,1.91,9.64l-21.83,24.6c-2.17-1.64-4.74-2.81-7.59-3.32-2.53-.45-5.03-.33-7.38.25l-13.13-39.12Z"/>
    </g>
  </g>
</svg>