<?xml version="1.0" encoding="UTF-8"?>
<svg id="Capa_2" data-name="Capa 2" xmlns="http://www.w3.org/2000/svg" viewBox="0 0 113.39 35.96">
  <defs>
    <style>
      .cls-1 {
        fill: #387abb;
      }

      .cls-2 {
        fill: #8dbe22;
      }

      .cls-3 {
        fill: none;
      }

      .cls-4 {
        fill: #e8461c;
      }
    </style>
  </defs>
  <g id="Capa_1-2" data-name="Capa 1">
    <g>
      <path d="m36.19,15.08c4.05,1.69,7.06,2.94,7.06,7.95,0,4.75-3.09,7.76-7.91,7.76s-7.69-3.57-7.58-8.46h2.35c-.04,3.46,1.4,6.33,5.19,6.33,3.35,0,5.56-2.13,5.56-5.56,0-4.16-3.02-4.82-6.18-6.07-3.72-1.47-6.36-3.13-6.36-7.54s2.69-7.62,7.17-7.62,7.14,2.98,7.03,7.32h-2.32c.15-3.05-1.66-5.19-4.75-5.19s-4.75,2.32-4.75,5.33c0,2.72.88,3.79,3.35,4.86l2.13.88Z"/>
      <path d="m8.43,15.08c4.05,1.69,7.06,2.94,7.06,7.95,0,4.75-3.09,7.76-7.91,7.76S-.11,27.22,0,22.33h2.35c-.04,3.46,1.4,6.33,5.19,6.33,3.35,0,5.56-2.13,5.56-5.56,0-4.16-3.02-4.82-6.18-6.07-3.72-1.47-6.36-3.13-6.36-7.54S3.24,1.87,7.73,1.87s7.14,2.98,7.03,7.32h-2.32c.15-3.05-1.66-5.19-4.75-5.19s-4.75,2.32-4.75,5.33c0,2.72.88,3.79,3.35,4.86l2.13.88Z"/>
      <path d="m70.29,30.32h-2.47V1.87h4.13l6.75,24.81h.08l6.9-24.81h4.02v28.45h-2.47V4.34h-.08l-7.05,25.98h-2.62l-7.13-25.98h-.08v25.98Z"/>
      <path class="cls-2" d="m106.39,22.03c-.26.16-.49.36-.71.57-.44.43-.81.92-1.14,1.42-.32.48-.61.98-.89,1.5-.31-.47-.64-.93-1-1.38-.38-.47-.78-.92-1.24-1.31-.23-.2-.48-.37-.75-.52-.27-.14-.57-.24-.87-.23v.04c.27.07.51.23.71.41.2.19.38.4.53.63.31.46.56.96.79,1.47.22.51.42,1.04.59,1.58.14.42.26.86.37,1.28l.02,5.67c0,.07,0,.13-.03.2-.15.43-.51.68-.92.68H.95c-.53,0-.95.43-.95.95h0c0,.53.43.95.95.95h100.97c.36,0,.73-.06,1.06-.22,1.1-.51,1.73-1.53,1.72-2.64l-.02-5.47c.06-.5.16-1.04.26-1.55.12-.55.26-1.1.44-1.64.18-.53.38-1.06.67-1.55.28-.48.63-.95,1.17-1.2-.29.04-.57.17-.83.33Z"/>
      <path class="cls-4" d="m21.74,19.21l-.8.8c-.1.1-.2.18-.31.25v10.25h2.23v-10.25c-.11-.07-.22-.16-.31-.25l-.8-.8Z"/>
      <path class="cls-4" d="m21.74,13.84l.8-.8c.1-.1.2-.18.31-.25V2.53h-2.23v10.25c.11.07.21.15.31.25l.8.8Z"/>
      <g>
        <path class="cls-4" d="m20.34,13.63c-.21-.21-.47-.31-.74-.31s-.54.1-.74.31c-.41.41-.41,1.08,0,1.49l.8.8,1.49-1.49-.8-.8Z"/>
        <path class="cls-4" d="m22.34,18.61l.8.8c.2.2.46.31.74.31s.55-.11.74-.31c.41-.41.41-1.08,0-1.49l-.8-.8-1.49,1.49Z"/>
        <path class="cls-4" d="m24.63,15.12c.41-.41.41-1.08,0-1.49-.41-.41-1.08-.41-1.49,0l-4.29,4.29c-.41.41-.41,1.08,0,1.49.2.2.46.31.74.31s.55-.11.74-.31l4.29-4.29Z"/>
      </g>
      <path class="cls-3" d="m50.23,12.86v.95l-.57.53c0,.46-.01.89-.01,1.3l.58-.54v3.89c0,.36-.22.67-.53.8.22,4.14,1.22,8.87,5.79,8.87,5.81,0,5.59-8.39,5.59-12.29s.04-12.36-5.85-12.36c-4.01,0-5.15,4.24-5.47,8.09.27.15.46.43.46.76Z"/>
      <path d="m55.35,1.87c-5.91,0-7.55,5.22-7.96,10.22.12-.06.25-.1.39-.1h1.58c.15,0,.29.04.42.11.32-3.85,1.45-8.09,5.47-8.09,5.89,0,5.85,8.31,5.85,12.36s.22,12.29-5.59,12.29c-4.58,0-5.58-4.73-5.79-8.87-.11.05-.22.07-.35.07h-1.58c-.16,0-.31-.05-.43-.12.31,5.3,1.69,11.05,7.93,11.05,7.76,0,8.2-7.87,8.2-13.87s-.04-15.05-8.13-15.05Z"/>
      <path class="cls-1" d="m50.23,13.82v-.95c0-.33-.19-.62-.46-.76-.12-.07-.26-.11-.42-.11h-1.58c-.14,0-.27.04-.39.1-.29.14-.48.44-.48.78v4.03l.36-.33,2.4-2.22.57-.53Zm-1.59.41c-.36,0-.66-.29-.66-.66s.29-.66.66-.66.66.29.66.66-.29.66-.66.66Z"/>
      <path class="cls-1" d="m49.36,19.86c.12,0,.24-.03.35-.07.31-.13.53-.44.53-.8v-3.89l-.58.54-2.38,2.19-.37.34v.81c0,.32.18.6.44.76.13.07.28.12.43.12h1.58Z"/>
      <path class="cls-2" d="m113.1,19.73c-.22-1.17-.55-2.37-1.06-3.78-.4-1.11-.92-2.26-1.56-3.52-.31-.6-.61-1.15-.91-1.67-.31-.54-.65-1.08-.99-1.61-.61-.96-1.3-1.94-2.17-3.09-.91-1.17-1.67-2.06-2.46-2.9l-3.02-3.17s.44,3.34-.14,5.48c0,0-.35,1.14-.52,1.63-.37,1.04-.82,2.1-1.24,3.09-.21.49-.43.97-.69,1.54-.23.52-.47,1.03-.71,1.52-.3.61-.53,1.06-.75,1.47l-.63,1.19-.21.46c-.59,1.29-.98,2.56-1.17,3.77-.21,1.38-.21,2.72,0,4,.11.68.27,1.33.47,1.94.22.65.5,1.27.83,1.84.35.59.76,1.13,1.22,1.61.55.57.92.77,1.67,1.26l.43.27,1.26.61-.48-1.37-.18-.46c-.44-1.13-.83-2.14-1.15-3.18-.29-.9-.6-1.94-.69-2.97-.19-1.89.2-3.87,1.13-5.73l.17-.34.43-.75c.07-.11.14-.23.2-.34.32-.58.61-1.14.85-1.61.26-.51.52-1.05.78-1.61.22-.48.44-1,.71-1.64.45-1.06.83-2.09,1.17-3.12.53.77,1.08,1.61,1.71,2.61.31.49.6,1,.89,1.5.33.58.6,1.06.84,1.52.5.96.99,2.01,1.44,3.1.45,1.12.78,2.16,1.01,3.17.26,1.09.38,2.16.37,3.16-.01.94-.17,1.91-.5,3.04-.16.54-.35,1.03-.56,1.51-.19.42-.4.85-.63,1.3l-1.1,2.19,1.91-.88c1.27-.58,2.38-1.62,3.13-2.91.36-.61.64-1.29.84-2,.17-.6.28-1.27.35-2.09.1-1.28.02-2.61-.24-4.06Z"/>
    </g>
  </g>
</svg>